<svg class="animated" id="freepik_stories-forever" xmlns="http://www.w3.org/2000/svg" viewBox="0 0 500 500" version="1.1" xmlns:xlink="http://www.w3.org/1999/xlink" xmlns:svgjs="http://svgjs.com/svgjs"><style>svg#freepik_stories-forever:not(.animated) .animable {opacity: 0;}svg#freepik_stories-forever.animated #freepik--background-simple--inject-2 {animation: 6s Infinite  linear heartbeat;animation-delay: 0s;}            @keyframes heartbeat {                0% {                    transform: scale(1);                }                10% {                    transform: scale(1.1);                }                30% {                    transform: scale(1);                }                40% {                    transform: scale(1);                }                50% {                    transform: scale(1.1);                }                60% {                    transform: scale(1);                }                100% {                    transform: scale(1);                }            }        </style><g id="freepik--background-simple--inject-2" class="animable" style="transform-origin: 260.147px 211.294px;"><path d="M421.82,100.07c-23-31.51-65.6-47.31-103.59-38.43S249.07,103.57,242.42,142c-16.34-15.28-37.2-25.94-59.37-29s-45.54,1.72-64.08,14.25c-25,16.9-39.55,46.89-41.28,77s8.38,60.17,24.6,85.62,41.51,54.19,65.13,73l173.24.53c21.54-26.35,35.34-47.11,55.52-74.52S433.4,231,440,197.6,441.89,127.56,421.82,100.07Z" style="fill: rgb(245, 245, 245); transform-origin: 260.147px 211.294px;" id="elxkmasit5xb" class="animable"></path></g><g id="freepik--Floor--inject-2" class="animable" style="transform-origin: 239px 423.47px;"><path d="M448.48,423.47c0,.14-93.79.26-209.47.26s-209.49-.12-209.49-.26,93.77-.26,209.49-.26S448.48,423.33,448.48,423.47Z" style="fill: rgb(38, 50, 56); transform-origin: 239px 423.47px;" id="elkiy18b9f1f" class="animable"></path></g><g id="freepik--Characters--inject-2" class="animable animator-active" style="transform-origin: 238.405px 284.898px;"><path d="M286.08,270.94h0a23.22,23.22,0,0,1-26.44-17.73c-2-8.76-3.81-16.81-3.81-16.81s-18.84,1.46-23.35-16.66-11.19-60.58-11.19-60.58h0a64.86,64.86,0,0,1,65.33-7l3.18,1.44,15.37,90.52A23.21,23.21,0,0,1,286.08,270.94Z" style="fill: rgb(255, 190, 157); transform-origin: 263.397px 208.83px;" id="elgrsust069vl" class="animable"></path><path d="M255.74,236.14s11.7-1.77,22.1-12.31c0,0-2.52,14.39-21,17Z" style="fill: rgb(235, 153, 110); transform-origin: 266.79px 232.33px;" id="elnbrkd14pg4h" class="animable"></path><path d="M292,173c.28-.2,11.61-6.63,14.15,5.89S295.59,191.32,295.5,191,292,173,292,173Z" style="fill: rgb(255, 190, 157); transform-origin: 299.238px 181.13px;" id="el7u42cni1jns" class="animable"></path><path d="M298.36,185.45c.05,0,.25.11.65.2a2.22,2.22,0,0,0,1.64-.29c1.22-.75,1.91-3.08,1.52-5.35a7.37,7.37,0,0,0-1.25-3,2.6,2.6,0,0,0-2-1.34,1.13,1.13,0,0,0-1.17.86c-.1.38,0,.62,0,.65s-.31-.15-.31-.69a1.37,1.37,0,0,1,.33-.88,1.69,1.69,0,0,1,1.14-.57,3.15,3.15,0,0,1,2.67,1.48,7.48,7.48,0,0,1,1.46,3.34c.43,2.54-.38,5.16-2.09,6a2.4,2.4,0,0,1-2.06.07C298.44,185.75,298.32,185.48,298.36,185.45Z" style="fill: rgb(235, 153, 110); transform-origin: 300.297px 180.584px;" id="el6y7yol3o14g" class="animable"></path><path d="M233.09,187.81a2.67,2.67,0,0,0,3,2.17,2.55,2.55,0,0,0,2.27-2.86,2.67,2.67,0,0,0-3-2.18A2.56,2.56,0,0,0,233.09,187.81Z" style="fill: rgb(38, 50, 56); transform-origin: 235.725px 187.46px;" id="elopfnuewa459" class="animable"></path><path d="M231.52,183.23c.38.28,2.1-1.56,4.92-2.07s5.15.51,5.39.11c.12-.18-.32-.74-1.34-1.23a7.34,7.34,0,0,0-4.4-.51,7,7,0,0,0-3.84,2.07C231.51,182.43,231.33,183.1,231.52,183.23Z" style="fill: rgb(38, 50, 56); transform-origin: 236.65px 181.328px;" id="el3gkkslzv14r" class="animable"></path><path d="M259.83,182.28a2.67,2.67,0,0,0,3,2.18,2.55,2.55,0,0,0,2.26-2.87,2.67,2.67,0,0,0-3-2.18A2.56,2.56,0,0,0,259.83,182.28Z" style="fill: rgb(38, 50, 56); transform-origin: 262.461px 181.935px;" id="elmvzcgdd7bg" class="animable"></path><path d="M259.34,178.62c.39.28,2.1-1.56,4.93-2.07s5.15.51,5.39.11c.12-.18-.32-.74-1.35-1.22a7.32,7.32,0,0,0-4.39-.52,7,7,0,0,0-3.84,2.08C259.33,177.82,259.15,178.5,259.34,178.62Z" style="fill: rgb(38, 50, 56); transform-origin: 264.475px 176.719px;" id="eljayc2nd0eva" class="animable"></path><path d="M253,201.43c0-.16-1.82-.14-4.73,0-.73.06-1.44.05-1.65-.42a3.74,3.74,0,0,1,.08-2.23q.54-2.79,1.12-5.88c1.51-8.35,2.46-15.17,2.12-15.23s-1.83,6.67-3.34,15q-.54,3.09-1,5.89a4.24,4.24,0,0,0,.15,2.9,1.83,1.83,0,0,0,1.38.83,5,5,0,0,0,1.25-.05C251.22,201.91,253,201.6,253,201.43Z" style="fill: rgb(38, 50, 56); transform-origin: 249.207px 189.989px;" id="el5sxaskp9e8" class="animable"></path><path d="M261.64,201.85c-.47.06.09,3.12-2.12,5.78S254,210.55,254,211c0,.2.84.46,2.22.25a7.8,7.8,0,0,0,4.61-2.63,6.77,6.77,0,0,0,1.59-4.81C262.33,202.49,261.84,201.79,261.64,201.85Z" style="fill: rgb(38, 50, 56); transform-origin: 258.217px 206.587px;" id="el2hjfmdr5xpo" class="animable"></path><path d="M256.57,167.7c.42.72,3.16-.17,6.55-.38s6.23.19,6.54-.58c.13-.36-.47-1-1.68-1.54a11.38,11.38,0,0,0-10,.73C256.88,166.64,256.38,167.36,256.57,167.7Z" style="fill: rgb(224, 224, 224); transform-origin: 263.104px 166.175px;" id="elft3uc3mewga" class="animable"></path><path d="M231,174.87c.62.55,2.44-.48,4.77-.94s4.39-.37,4.72-1.12c.14-.36-.29-.95-1.26-1.4a6.83,6.83,0,0,0-4.08-.33,6.69,6.69,0,0,0-3.57,2C230.91,173.89,230.76,174.6,231,174.87Z" style="fill: rgb(224, 224, 224); transform-origin: 235.704px 172.969px;" id="elpps004tpcgp" class="animable"></path><path d="M209.69,148.78a6.85,6.85,0,0,1,1.38-6.51,4.88,4.88,0,0,1,6.31-.69,5.71,5.71,0,0,1,3.56-7.7c3-.74,5.93,1.05,9,1.31s5.88-1,8.39-2.58,4.77-3.58,7.34-5.09a23.86,23.86,0,0,1,32.57,8.23c3.78-2,8.72-.81,11.83,2.13s4.56,7.3,4.84,11.56a39,39,0,0,1-.57,8.63c0,.23.11.46.15.7,1.68,10.13,2.73,22.19-1.56,23-7.49,1.51-8.32-13-8.32-13-9.87-1.86-9-16.29-11.68-18s-8.41-5.64-25.87,7.79c-6.78,5.21-16.76,6.93-22.42,6.71H224l-.17,0a17.65,17.65,0,0,1-5.33-1.18,10,10,0,0,1-4.92-3.78,5.46,5.46,0,0,1,0-5.94A11.91,11.91,0,0,1,209.69,148.78Z" style="fill: rgb(224, 224, 224); transform-origin: 252.67px 153.042px;" id="eldazdntesw3" class="animable"></path><path d="M292.26,142.22a4.38,4.38,0,0,1-.22,1c-.18.64-.44,1.56-.83,2.67a31.78,31.78,0,0,1-4,8.29,18.23,18.23,0,0,1-3.5,3.73,17.65,17.65,0,0,1-3.55,2.2,15.23,15.23,0,0,1-2.63,1,3.23,3.23,0,0,1-1,.18c0-.09,1.41-.41,3.49-1.47a18.83,18.83,0,0,0,6.79-5.9,36.53,36.53,0,0,0,4.13-8.11A36.15,36.15,0,0,1,292.26,142.22Z" style="fill: rgb(255, 255, 255); transform-origin: 284.395px 151.755px;" id="el57jip2770hn" class="animable"></path><path d="M294.57,153.89s-.11.26-.39.67a17.89,17.89,0,0,1-1.31,1.65,23.44,23.44,0,0,1-5.33,4.44,24,24,0,0,1-6.38,2.73,17,17,0,0,1-2.06.41c-.5.06-.77.08-.78,0s1.06-.28,2.74-.81A27.53,27.53,0,0,0,292.6,156C293.83,154.7,294.5,153.84,294.57,153.89Z" style="fill: rgb(255, 255, 255); transform-origin: 286.445px 158.865px;" id="el6289usy18e3" class="animable"></path><path d="M227.46,143.33s-.23-.17-.71-.4a3.89,3.89,0,0,0-2.26-.24,4,4,0,0,0-2.86,2,5,5,0,0,0,0,4.6,6.33,6.33,0,0,0,4.61,3.17,10.08,10.08,0,0,0,6.48-1.23,24.27,24.27,0,0,0,5.88-4.61c1.84-1.86,3.59-4,5.54-6a24.25,24.25,0,0,1,6.47-5,15.59,15.59,0,0,1,7.46-1.61,16.17,16.17,0,0,1,6.7,1.69,15.2,15.2,0,0,1,4.7,3.76,16,16,0,0,1,3.53,7.88,10.85,10.85,0,0,1,.06,3.19,22.45,22.45,0,0,0-.26-3.15,16.07,16.07,0,0,0-3.61-7.68,14.92,14.92,0,0,0-4.62-3.61,15.79,15.79,0,0,0-6.52-1.6,15.07,15.07,0,0,0-7.21,1.59,24,24,0,0,0-6.33,4.93c-1.93,2-3.68,4.09-5.54,6a25,25,0,0,1-6,4.68,10.57,10.57,0,0,1-6.78,1.23,6.72,6.72,0,0,1-4.86-3.44,5.34,5.34,0,0,1,0-4.9,4.22,4.22,0,0,1,3.09-2.06,3.82,3.82,0,0,1,2.34.35A2.23,2.23,0,0,1,227.46,143.33Z" style="fill: rgb(255, 255, 255); transform-origin: 246.942px 143.522px;" id="elik4yjooe17" class="animable"></path><path d="M268.62,184.21c.05,0-.14.47-.66,1a6,6,0,0,1-5.46,1.64c-.74-.17-1.14-.42-1.12-.48a7.78,7.78,0,0,0,7.24-2.18Z" style="fill: rgb(235, 153, 110); transform-origin: 265.004px 185.582px;" id="elaark4ux63c" class="animable"></path><path d="M270.23,185.06c.06,0,0,.4-.34.92a4.5,4.5,0,0,1-4.11,2c-.61-.06-.95-.24-.94-.3a8.6,8.6,0,0,0,3-.61A8.49,8.49,0,0,0,270.23,185.06Z" style="fill: rgb(235, 153, 110); transform-origin: 267.545px 186.527px;" id="elxf02hqqov3" class="animable"></path><path d="M238,192.8c0,.06-.3.28-.91.46a5.52,5.52,0,0,1-2.47.07,5.41,5.41,0,0,1-2.26-1c-.51-.39-.73-.72-.68-.77a13,13,0,0,0,3,1.26A13.15,13.15,0,0,0,238,192.8Z" style="fill: rgb(235, 153, 110); transform-origin: 234.837px 192.499px;" id="el534w71g7ebt" class="animable"></path><path d="M236.07,194.47a3,3,0,0,1-2.16.06c-1.19-.26-2-.87-1.92-1a9.83,9.83,0,0,1,2,.49C235.13,194.28,236.06,194.32,236.07,194.47Z" style="fill: rgb(235, 153, 110); transform-origin: 234.027px 194.116px;" id="elczstiir4nrt" class="animable"></path><path d="M263.82,202.42c-.1.11-.83-.41-1.87-.44s-1.81.41-1.9.29.11-.25.44-.46a2.81,2.81,0,0,1,1.48-.35,2.75,2.75,0,0,1,1.44.47C263.73,202.16,263.86,202.37,263.82,202.42Z" style="fill: rgb(235, 153, 110); transform-origin: 261.928px 201.946px;" id="elazad8v1cy4v" class="animable"></path><path d="M266.54,200.34a6.84,6.84,0,0,1-7.73-1.21,11.09,11.09,0,0,0,7.73,1.21Z" style="fill: rgb(235, 153, 110); transform-origin: 262.675px 200.081px;" id="elrubhvxn3a5m" class="animable"></path><path d="M253.14,213.21c-.13,0-.48-.56-.39-1.38s.57-1.35.68-1.27-.09.63-.16,1.32S253.28,213.16,253.14,213.21Z" style="fill: rgb(235, 153, 110); transform-origin: 253.099px 211.881px;" id="elez599enoz28" class="animable"></path><path d="M265.88,217.21c0,.07-.57-.19-1.49-.34a8.48,8.48,0,0,0-3.57.27,18.5,18.5,0,0,0-3.37,1.43,5.26,5.26,0,0,1-1.41.63c0-.06.42-.43,1.23-.95a13,13,0,0,1,3.41-1.61,7.28,7.28,0,0,1,3.79-.13A2.69,2.69,0,0,1,265.88,217.21Z" style="fill: rgb(235, 153, 110); transform-origin: 260.96px 217.76px;" id="el8qw07240a02" class="animable"></path><path d="M256.55,162.53c0,.1-.86,0-2.16.37a21.3,21.3,0,0,0-4.85,2.11,19.76,19.76,0,0,1-5,2.07,5.08,5.08,0,0,1-2.25.09c0-.1.86-.08,2.16-.45a24.33,24.33,0,0,0,4.83-2.17c.92-.5,1.82-.94,2.67-1.3a10.7,10.7,0,0,1,2.34-.71,5.76,5.76,0,0,1,.94-.12,3.35,3.35,0,0,1,.71,0C256.35,162.46,256.56,162.49,256.55,162.53Z" style="fill: rgb(235, 153, 110); transform-origin: 249.42px 164.828px;" id="eltql8f0o36b" class="animable"></path><path d="M253.91,161.11a30.55,30.55,0,0,1-6.24,2.69,31.52,31.52,0,0,1-6.56,1.77c0-.15,2.86-1,6.39-2.26S253.85,161,253.91,161.11Z" style="fill: rgb(235, 153, 110); transform-origin: 247.51px 163.336px;" id="el7bfbtreadky" class="animable"></path><path d="M305,243.33s49.9,18.6,52.36,27.92c.89,3.38,9.88,87,9.88,87l-47,5.57,3.76,59.64-63.09,0H213.53v-134S220,255,251.84,252.29c3.85-.33,26,20.39,26,20.39Z" style="fill: rgb(69, 90, 100); transform-origin: 290.385px 333.395px;" id="el4e2gui243r" class="animable"></path><polygon points="277.84 272.68 282.01 257.27 303.72 235.56 314.33 246.97 292 276.45 277.84 272.68" style="fill: rgb(69, 90, 100); transform-origin: 296.085px 256.005px;" id="eliwnh2aoiakf" class="animable"></polygon><polyline points="251.84 252.29 256.8 240.86 271.84 256 277.84 272.68 263.82 276.45 249.17 253.68" style="fill: rgb(69, 90, 100); transform-origin: 263.505px 258.655px;" id="el6s8w5l5mwjm" class="animable"></polyline><path d="M311.94,245.3s-.07.15-.23.42-.46.7-.76,1.16c-.67,1-1.66,2.41-2.95,4.13a137,137,0,0,1-10.87,12.76c-2.14,2.24-4.27,4.3-6.26,6.12l-.17.17-.17-.18a42,42,0,0,1-6.32-8.72c-.63-1.17-1.08-2.12-1.36-2.78a6.14,6.14,0,0,1-.39-1,5.1,5.1,0,0,1,.53,1c.33.64.81,1.56,1.47,2.7a46.22,46.22,0,0,0,6.42,8.54h-.34c2-1.83,4.08-3.9,6.22-6.13a161.19,161.19,0,0,0,10.94-12.63c1.33-1.68,2.36-3.07,3.09-4l.83-1.1C311.82,245.41,311.93,245.28,311.94,245.3Z" style="fill: rgb(38, 50, 56); transform-origin: 297.2px 257.679px;" id="ele5qs2l8iec" class="animable"></path><path d="M253.13,251.55a6,6,0,0,1,.76,1.12l1.89,3.15c1.57,2.68,3.72,6.39,6.06,10.5l1.34,2.35-.43,0c2.41-3.3,4.32-6.35,5.64-8.57.61-1.05,1.13-1.92,1.53-2.62a5.29,5.29,0,0,1,.6-.94,4.38,4.38,0,0,1-.43,1c-.31.65-.78,1.57-1.4,2.71a85.35,85.35,0,0,1-5.53,8.7l-.23.33-.2-.35-1.34-2.35c-2.34-4.12-4.44-7.85-5.93-10.57l-1.75-3.24A7.09,7.09,0,0,1,253.13,251.55Z" style="fill: rgb(38, 50, 56); transform-origin: 261.825px 260.415px;" id="el3h4mka8ujy1" class="animable"></path><path d="M282.46,391.43a1.44,1.44,0,0,1,0-.31c0-.23-.05-.53-.08-.91,0-.83-.13-2-.22-3.5-.19-3-.42-7.45-.67-12.89-.51-10.89-1.09-25.94-1.69-42.56s-1.14-31.65-1.54-42.57c-.21-5.42-.38-9.82-.5-12.9-.05-1.5-.1-2.67-.13-3.51,0-.38,0-.68,0-.91a1.43,1.43,0,0,1,0-.31,1.44,1.44,0,0,1,0,.31c0,.23.05.53.08.91.05.83.13,2,.23,3.5.18,3,.41,7.45.66,12.89.51,10.89,1.09,25.94,1.69,42.57s1.14,31.64,1.54,42.56c.21,5.42.38,9.82.5,12.9.05,1.5.1,2.67.13,3.51,0,.38,0,.68,0,.91A1.43,1.43,0,0,1,282.46,391.43Z" style="fill: rgb(38, 50, 56); transform-origin: 280.045px 331.245px;" id="elh0ixjta262r" class="animable"></path><path d="M331.93,260.31s-.06.08-.2.2l-.62.53-2.42,2a67,67,0,0,0-8.27,8.05,31,31,0,0,0-4.3,6.67,28.23,28.23,0,0,0-2.33,8.76,66.05,66.05,0,0,0-.18,10.1c.16,3.52.36,7.15.62,10.87,1,14.9,2.65,28.32,3.8,38,.58,4.83,1.06,8.75,1.39,11.5.15,1.33.27,2.38.35,3.13,0,.34.06.61.08.82a.86.86,0,0,1,0,.28,1,1,0,0,1-.06-.27c0-.21-.08-.48-.13-.81-.11-.75-.26-1.8-.45-3.12-.38-2.75-.9-6.67-1.55-11.49-1.25-9.7-2.91-23.13-4-38-.26-3.73-.46-7.37-.61-10.89a64.44,64.44,0,0,1,.21-10.17,28.61,28.61,0,0,1,2.42-8.9,31.63,31.63,0,0,1,4.4-6.72,63,63,0,0,1,8.43-8c1.07-.86,1.91-1.51,2.48-2l.66-.49Z" style="fill: rgb(38, 50, 56); transform-origin: 322.435px 310.765px;" id="elpcwfdmqrs9" class="animable"></path><path d="M287,312.35s.16-.06.44,0a1.83,1.83,0,0,1,1,.73,1.8,1.8,0,0,1,.13,1.83,2,2,0,0,1-1.95,1.1,2,2,0,0,1-1.67-1.49,1.83,1.83,0,0,1,1.6-2.26c.29,0,.44.05.44.08a2.45,2.45,0,0,0-1.27.68,1.43,1.43,0,0,0-.31,1.37,1.54,1.54,0,0,0,1.27,1.1,1.56,1.56,0,0,0,1.47-.81,1.39,1.39,0,0,0,0-1.4C287.63,312.5,286.94,312.43,287,312.35Z" style="fill: rgb(38, 50, 56); transform-origin: 286.828px 314.138px;" id="elx5bq5cnrehm" class="animable"></path><path d="M282.84,267.64s.16-.06.44,0a1.84,1.84,0,0,1,1.1,2.55,1.92,1.92,0,0,1-3.62-.38,1.78,1.78,0,0,1,.5-1.76,1.88,1.88,0,0,1,1.1-.51c.29,0,.44.05.44.08a2.61,2.61,0,0,0-1.27.69,1.42,1.42,0,0,0-.31,1.37,1.57,1.57,0,0,0,1.27,1.1A1.6,1.6,0,0,0,284,270a1.44,1.44,0,0,0,0-1.41C283.49,267.79,282.8,267.72,282.84,267.64Z" style="fill: rgb(38, 50, 56); transform-origin: 282.63px 269.426px;" id="elfuhoc8h5co6" class="animable"></path><path d="M287.16,357.87s.16-.07.44,0a1.84,1.84,0,0,1,1.1,2.55,1.92,1.92,0,0,1-3.62-.38,1.76,1.76,0,0,1,.5-1.75,1.84,1.84,0,0,1,1.1-.52c.29,0,.44.05.44.08a2.57,2.57,0,0,0-1.27.69,1.4,1.4,0,0,0-.31,1.37,1.47,1.47,0,0,0,2.74.29,1.41,1.41,0,0,0,0-1.41C287.81,358,287.12,358,287.16,357.87Z" style="fill: rgb(38, 50, 56); transform-origin: 286.95px 359.656px;" id="elt1n3wt1q1q" class="animable"></path><path d="M364.88,333.56c0,.14-10.35,2.29-23.18,4.8s-23.25,4.42-23.28,4.28,10.35-2.29,23.18-4.8S364.85,333.42,364.88,333.56Z" style="fill: rgb(250, 250, 250); transform-origin: 341.65px 338.1px;" id="el4wjzljh2uvv" class="animable"></path><path d="M361.45,303.55c0,.14-10.54,1.26-23.58,2.5s-23.62,2.14-23.63,2,10.54-1.26,23.58-2.5S361.44,303.41,361.45,303.55Z" style="fill: rgb(250, 250, 250); transform-origin: 337.845px 305.8px;" id="elbasoz22lcii" class="animable"></path><path d="M356.91,271.49c0,.14-8.85,1.12-19.8,2.18s-19.85,1.8-19.86,1.66,8.85-1.12,19.81-2.18S356.9,271.34,356.91,271.49Z" style="fill: rgb(250, 250, 250); transform-origin: 337.08px 273.409px;" id="el1ytx19lnzjz" class="animable"></path><path d="M348.51,361.67c-.15,0-2.26-22.73-4.72-50.79s-4.33-50.82-4.19-50.83,2.25,22.72,4.71,50.79S348.65,361.65,348.51,361.67Z" style="fill: rgb(250, 250, 250); transform-origin: 344.055px 310.86px;" id="els78kx3ebj4n" class="animable"></path><path d="M312,300.42a5.57,5.57,0,0,1-.73.13l-2.12.29c-1.84.25-4.5.56-7.8.9-6.59.69-15.72,1.46-25.83,1.92s-19.27.54-25.9.46c-3.31,0-6-.11-7.84-.18l-2.14-.1a4.89,4.89,0,0,1-.74-.06,4,4,0,0,1,.75,0h10c6.62,0,15.77-.15,25.87-.61s19.22-1.17,25.82-1.77l7.81-.73,2.13-.19A3.45,3.45,0,0,1,312,300.42Z" style="fill: rgb(250, 250, 250); transform-origin: 275.45px 302.283px;" id="eldg1dzadf7ir" class="animable"></path><path d="M317.68,337.18a2.59,2.59,0,0,1-.6.1l-1.71.19-6.3.64c-5.32.52-12.66,1.26-20.77,2.17s-15.43,1.8-20.74,2.46l-6.28.77-1.71.19a3.83,3.83,0,0,1-.6,0,2.11,2.11,0,0,1,.58-.14l1.7-.29c1.48-.24,3.62-.56,6.26-.93,5.3-.76,12.62-1.71,20.74-2.62s15.46-1.59,20.79-2c2.67-.22,4.82-.38,6.32-.47l1.72-.09A2.3,2.3,0,0,1,317.68,337.18Z" style="fill: rgb(250, 250, 250); transform-origin: 288.325px 340.43px;" id="elakyyqsfujws" class="animable"></path><path d="M321.25,379a3,3,0,0,1-.63.1l-1.8.19c-1.57.15-3.84.34-6.66.52-5.62.37-13.4.72-22,.91s-16.38.17-22,0c-2.82-.05-5.09-.14-6.67-.22l-1.81-.12a2.91,2.91,0,0,1-.63-.07,2.63,2.63,0,0,1,.64,0h1.81l6.67.06c5.63,0,13.41,0,22-.19s16.36-.48,22-.76l6.66-.35,1.81-.09A2.6,2.6,0,0,1,321.25,379Z" style="fill: rgb(250, 250, 250); transform-origin: 290.15px 379.913px;" id="elpmz59muxv6r" class="animable"></path><path d="M303.46,425.59a2.64,2.64,0,0,1,0-.41c0-.3,0-.7-.06-1.21,0-1.09-.1-2.65-.18-4.65-.17-4.06-.4-9.89-.69-17.09-.59-14.43-1.52-34.36-2.65-56.37s-2.27-41.93-3.15-56.35c-.46-7.19-.82-13-1.08-17.07-.13-2-.22-3.55-.29-4.64,0-.51-.05-.91-.07-1.21a2.12,2.12,0,0,1,0-.41,2.26,2.26,0,0,1,.06.41c0,.29.06.69.11,1.2.09,1.09.22,2.65.39,4.64.32,4,.76,9.85,1.24,17.06,1,14.41,2.17,34.33,3.31,56.35s2,41.94,2.5,56.38c.26,7.21.43,13.06.52,17.09,0,2,.07,3.56.09,4.66,0,.51,0,.91,0,1.21A1.85,1.85,0,0,1,303.46,425.59Z" style="fill: rgb(250, 250, 250); transform-origin: 299.395px 345.885px;" id="elug0ipd8rz79" class="animable"></path><path d="M252.94,316.38c-.15,0-.26-14.4-.26-32.17s.11-32.17.26-32.17.26,14.4.26,32.17S253.08,316.38,252.94,316.38Z" style="fill: rgb(250, 250, 250); transform-origin: 252.94px 284.21px;" id="elodml0738v9r" class="animable"></path><path d="M301.75,258.44a45.2,45.2,0,0,1-8.41-10c.12-.09,1.92,2.2,4.24,5S301.85,258.33,301.75,258.44Z" style="fill: rgb(250, 250, 250); transform-origin: 297.547px 253.439px;" id="eldpy315r4v6g" class="animable"></path><path d="M324.93,265a21.53,21.53,0,0,1-2.64-2.17l-6.2-5.41L309.86,252a24.76,24.76,0,0,1-2.52-2.3,21,21,0,0,1,2.76,2c1.65,1.31,3.9,3.16,6.33,5.27s4.58,4.07,6.11,5.53A21.52,21.52,0,0,1,324.93,265Z" style="fill: rgb(250, 250, 250); transform-origin: 316.135px 257.35px;" id="elndhyxd4661k" class="animable"></path><path d="M268.93,257a40.38,40.38,0,0,1-6.48.07,40.43,40.43,0,0,1-6.47-.45,41.83,41.83,0,0,1,6.48-.07A41.87,41.87,0,0,1,268.93,257Z" style="fill: rgb(250, 250, 250); transform-origin: 262.455px 256.812px;" id="elthsva73t5f" class="animable"></path><polygon points="111.07 351.27 125.46 423.47 153.55 423.47 111.07 351.27" style="fill: rgb(255, 114, 94); transform-origin: 132.31px 387.37px;" id="eljqfvo2l3wci" class="animable"></polygon><g id="ell7552dztqch"><polygon points="111.07 351.27 125.46 423.47 153.55 423.47 111.07 351.27" style="opacity: 0.2; transform-origin: 132.31px 387.37px;" class="animable"></polygon></g><path d="M123.4,388.68s-3.89-9.25-11.68-35a45.78,45.78,0,0,1,4.66-37.89,17.13,17.13,0,0,1,7.83-6.74l45.91-19.61,35.59,3.06s27.58,9.11,36.14,13.49,16.45,10.22,16.4,22.87,1,55.48,1,55.48l-2.74,44.29L181,444.81a35,35,0,0,1-38.62-18.48Z" style="fill: rgb(255, 114, 94); transform-origin: 184.41px 367.516px;" id="elxkb3t5cbof" class="animable"></path><path d="M258.25,400.77l-.36,0-1.06.05-4.06.17-15,.5L188.47,403l-7.58.21h-.16l-.07-.15c-8-15.6-15-29.44-20.13-39.42l-5.94-11.77L153,348.7l-.4-.83a1.07,1.07,0,0,1-.12-.29,2.31,2.31,0,0,1,.17.27l.44.81,1.66,3.15c1.45,2.77,3.52,6.75,6.09,11.69l20.28,39.34-.24-.14,7.58-.21,49.34-1.32,15-.35,4.07-.06h1.06Z" style="fill: rgb(38, 50, 56); transform-origin: 205.365px 375.395px;" id="el0cgrx1377dgn" class="animable"></path><path d="M249.13,396.22s.45-.7,1.06-2.07a17.54,17.54,0,0,0,1.42-6.13,30.09,30.09,0,0,0-1.13-9.28c-.91-3.42-2.19-7.13-3.4-11.05-2.44-7.82-4.64-14.89-6.26-20.09-.76-2.53-1.39-4.6-1.84-6.11-.19-.68-.35-1.23-.48-1.67a3.38,3.38,0,0,1-.13-.59,2.45,2.45,0,0,1,.23.56l.57,1.64c.5,1.5,1.17,3.55,2,6.06,1.66,5.18,3.91,12.24,6.41,20,1.21,3.92,2.47,7.63,3.36,11.09a29.13,29.13,0,0,1,1,9.43,16.83,16.83,0,0,1-1.59,6.19,12.26,12.26,0,0,1-.88,1.51A2.33,2.33,0,0,1,249.13,396.22Z" style="fill: rgb(38, 50, 56); transform-origin: 245.179px 367.725px;" id="ela6t5ayxwfo" class="animable"></path><path d="M187,322.9a6.7,6.7,0,0,1-.07.8,6.12,6.12,0,0,1-.17,1,8.4,8.4,0,0,1-.37,1.29,14.44,14.44,0,0,1-5,6.76,15,15,0,0,1-12,2.85A19.25,19.25,0,0,1,156.75,327a23.72,23.72,0,0,1-3.32-14.9,29.29,29.29,0,0,1,3.94-11.92,37.74,37.74,0,0,1,5.06-6.8c.69-.74,1.24-1.28,1.63-1.64a3.31,3.31,0,0,1,.61-.52,7.91,7.91,0,0,1-.54.6c-.36.38-.89.94-1.55,1.69a40.63,40.63,0,0,0-4.89,6.85,29.47,29.47,0,0,0-3.78,11.78,23.34,23.34,0,0,0,3.28,14.58,18.88,18.88,0,0,0,12.18,8.33,15,15,0,0,0,6.55-.19,15.35,15.35,0,0,0,5.17-2.49,14.57,14.57,0,0,0,5.06-6.53A23.52,23.52,0,0,0,187,322.9Z" style="fill: rgb(38, 50, 56); transform-origin: 170.145px 313.546px;" id="el6taquso713o" class="animable"></path><path d="M204.42,293.71a2.86,2.86,0,0,1,.6.3c.39.21.94.56,1.63,1a24.64,24.64,0,0,1,5.14,4.86,22.47,22.47,0,0,1,4.41,9.48A19.06,19.06,0,0,1,214.28,322a16.61,16.61,0,0,1-9.61,8.26,15.92,15.92,0,0,1-10.4-.53,14.07,14.07,0,0,1-5.7-4.15l-.65-.9c-.18-.26-.3-.51-.41-.7a3.58,3.58,0,0,1-.3-.6,3,3,0,0,1,.39.54c.12.18.25.42.44.67l.69.86a14.37,14.37,0,0,0,5.68,3.94,15.69,15.69,0,0,0,10.12.41,16.19,16.19,0,0,0,9.29-8,18.79,18.79,0,0,0,1.91-12.25,22.3,22.3,0,0,0-4.24-9.35,26.44,26.44,0,0,0-5-4.92C205.2,294.21,204.39,293.76,204.42,293.71Z" style="fill: rgb(38, 50, 56); transform-origin: 201.88px 312.3px;" id="el12je16c7hveg" class="animable"></path><path d="M124.15,328.51s.2-.14.61-.16a2.78,2.78,0,0,1,1.65.54,3,3,0,0,1,1.27,2.26,2.77,2.77,0,0,1-1.76,2.59,2.8,2.8,0,0,1-3.11-.43,3,3,0,0,1-.82-2.46,2.77,2.77,0,0,1,.71-1.58c.29-.3.52-.37.53-.35s-.15.17-.37.48a2.82,2.82,0,0,0,.28,3.56,2.52,2.52,0,0,0,4.06-1.8,2.72,2.72,0,0,0-1-2,2.8,2.8,0,0,0-1.44-.62C124.38,328.51,124.16,328.56,124.15,328.51Z" style="fill: rgb(250, 250, 250); transform-origin: 124.823px 331.189px;" id="elikcdh6xtc7m" class="animable"></path><path d="M141.69,312.69s.2-.13.62-.15a2.72,2.72,0,0,1,1.65.54,3,3,0,0,1,1.27,2.25,3,3,0,0,1-4.88,2.16,3,3,0,0,1-.81-2.45,2.68,2.68,0,0,1,.71-1.59c.29-.29.51-.37.52-.35s-.15.17-.37.48a2.89,2.89,0,0,0-.5,1.49,2.73,2.73,0,0,0,.78,2.07,2.53,2.53,0,0,0,4.07-1.8,2.74,2.74,0,0,0-1-2,2.83,2.83,0,0,0-1.43-.63C141.92,312.7,141.7,312.74,141.69,312.69Z" style="fill: rgb(250, 250, 250); transform-origin: 142.373px 315.348px;" id="el87edc6optim" class="animable"></path><path d="M176.33,349.19s.2-.14.61-.16a2.78,2.78,0,0,1,1.65.54,3,3,0,0,1,1.27,2.26A3,3,0,0,1,175,354a3,3,0,0,1-.82-2.46,2.77,2.77,0,0,1,.71-1.58c.29-.3.52-.37.53-.35s-.15.17-.37.48a2.73,2.73,0,0,0-.5,1.48,2.7,2.7,0,0,0,.78,2.08,2.52,2.52,0,0,0,4.06-1.8,2.68,2.68,0,0,0-1-2,2.83,2.83,0,0,0-1.44-.63C176.56,349.19,176.34,349.24,176.33,349.19Z" style="fill: rgb(250, 250, 250); transform-origin: 177.008px 351.84px;" id="el2ak1m0njkgc" class="animable"></path><path d="M207.78,337.38a1,1,0,0,1,.62-.15,2.69,2.69,0,0,1,1.65.53,3,3,0,0,1,1.27,2.26,3,3,0,0,1-4.88,2.16,3,3,0,0,1-.81-2.46,2.65,2.65,0,0,1,.71-1.58c.29-.3.51-.37.53-.35s-.16.17-.38.48a2.85,2.85,0,0,0-.49,1.48,2.69,2.69,0,0,0,.77,2.08,2.53,2.53,0,0,0,4.07-1.8,2.67,2.67,0,0,0-1-2,2.83,2.83,0,0,0-1.43-.63C208,337.38,207.79,337.43,207.78,337.38Z" style="fill: rgb(250, 250, 250); transform-origin: 208.463px 340.036px;" id="elmfmpofwzsz" class="animable"></path><path d="M204.43,359.94a1,1,0,0,1,.62-.16,2.78,2.78,0,0,1,1.65.54,3,3,0,0,1,1.27,2.26,3,3,0,0,1-4.88,2.16,3,3,0,0,1-.81-2.46,2.65,2.65,0,0,1,.71-1.58c.29-.3.52-.37.53-.35s-.16.17-.38.48a2.82,2.82,0,0,0-.49,1.48,2.69,2.69,0,0,0,.77,2.08,2.53,2.53,0,0,0,4.07-1.8,2.65,2.65,0,0,0-1-2A2.8,2.8,0,0,0,205,360C204.66,359.94,204.44,360,204.43,359.94Z" style="fill: rgb(250, 250, 250); transform-origin: 205.113px 362.592px;" id="el4vq7lohzgqd" class="animable"></path><path d="M235.73,365.93s.2-.14.61-.16a2.75,2.75,0,0,1,1.65.54,3,3,0,0,1,1.28,2.26,3,3,0,0,1-4.88,2.16,3,3,0,0,1-.81-2.46,2.71,2.71,0,0,1,.7-1.58c.3-.3.52-.37.53-.35s-.15.17-.37.48a2.82,2.82,0,0,0-.5,1.48,2.71,2.71,0,0,0,.78,2.08,2.53,2.53,0,0,0,4.07-1.8,2.76,2.76,0,0,0-1-2,2.8,2.8,0,0,0-1.43-.62C236,365.93,235.74,366,235.73,365.93Z" style="fill: rgb(250, 250, 250); transform-origin: 236.413px 368.583px;" id="eldny1gnpvh6w" class="animable"></path><path d="M219.37,383.24s.2-.14.62-.16a2.78,2.78,0,0,1,1.65.54,3,3,0,0,1,1.27,2.25A3,3,0,0,1,218,388a3,3,0,0,1-.81-2.45,2.68,2.68,0,0,1,.71-1.59c.29-.29.51-.37.52-.35s-.15.17-.37.48a2.81,2.81,0,0,0-.49,1.49,2.71,2.71,0,0,0,.77,2.08,2.54,2.54,0,0,0,4.07-1.81,2.67,2.67,0,0,0-1-2,2.83,2.83,0,0,0-1.43-.63C219.6,383.24,219.38,383.28,219.37,383.24Z" style="fill: rgb(250, 250, 250); transform-origin: 220.038px 385.885px;" id="elie2nbmbekt" class="animable"></path><path d="M230.06,327.72s.19-.14.61-.15a2.69,2.69,0,0,1,1.65.53,3,3,0,0,1,1.27,2.26,3,3,0,0,1-4.87,2.16,3,3,0,0,1-.82-2.46,2.71,2.71,0,0,1,.71-1.58c.29-.3.52-.37.53-.35s-.15.17-.37.48a2.76,2.76,0,0,0-.5,1.48,2.7,2.7,0,0,0,.78,2.08,2.52,2.52,0,0,0,4.06-1.8,2.68,2.68,0,0,0-1-2,2.86,2.86,0,0,0-1.44-.63C230.28,327.72,230.07,327.77,230.06,327.72Z" style="fill: rgb(250, 250, 250); transform-origin: 230.733px 330.374px;" id="eljmpwpp4j1p" class="animable"></path><path d="M183.56,375.22s.2-.14.61-.16a2.78,2.78,0,0,1,1.65.54,3,3,0,0,1,1.27,2.25,3,3,0,0,1-4.87,2.16,3,3,0,0,1-.82-2.45,2.74,2.74,0,0,1,.71-1.58,1.1,1.1,0,0,1,.53-.36s-.15.18-.37.48a2.8,2.8,0,0,0-.5,1.49,2.71,2.71,0,0,0,.78,2.08,2.38,2.38,0,0,0,2.57.31,2.35,2.35,0,0,0,1.49-2.11,2.72,2.72,0,0,0-1-2,2.83,2.83,0,0,0-1.44-.63C183.79,375.22,183.57,375.27,183.56,375.22Z" style="fill: rgb(250, 250, 250); transform-origin: 184.234px 377.864px;" id="ell3haa0jv3gp" class="animable"></path><path d="M142.76,346.47s.2-.14.62-.16a2.74,2.74,0,0,1,1.64.54,3,3,0,0,1,1.28,2.25,3,3,0,0,1-4.88,2.16,3,3,0,0,1-.81-2.45,2.74,2.74,0,0,1,.7-1.59c.3-.29.52-.37.53-.35s-.15.17-.37.48a2.89,2.89,0,0,0-.5,1.49,2.73,2.73,0,0,0,.78,2.07,2.53,2.53,0,0,0,4.07-1.8,2.74,2.74,0,0,0-1-2,2.83,2.83,0,0,0-1.43-.63C143,346.47,142.77,346.51,142.76,346.47Z" style="fill: rgb(250, 250, 250); transform-origin: 143.443px 349.118px;" id="elukklw3vqvnh" class="animable"></path><path d="M143.46,383s.2-.14.61-.16a2.76,2.76,0,0,1,1.65.54,3,3,0,0,1,1.27,2.26,2.77,2.77,0,0,1-1.76,2.59,2.8,2.8,0,0,1-3.11-.43,3.07,3.07,0,0,1-.82-2.46,2.77,2.77,0,0,1,.71-1.58c.3-.3.52-.37.53-.35s-.15.17-.37.48a2.82,2.82,0,0,0-.5,1.48,2.71,2.71,0,0,0,.78,2.08,2.53,2.53,0,0,0,4.07-1.8,2.76,2.76,0,0,0-1-2,2.8,2.8,0,0,0-1.44-.62C143.69,383,143.47,383.08,143.46,383Z" style="fill: rgb(250, 250, 250); transform-origin: 144.135px 385.679px;" id="elyqsc96vuxb" class="animable"></path><path d="M124.19,361.73s.2-.14.61-.16a2.76,2.76,0,0,1,1.65.54,3,3,0,0,1,1.27,2.25,3,3,0,0,1-4.87,2.16,3,3,0,0,1-.82-2.45,2.81,2.81,0,0,1,.71-1.59c.29-.29.52-.37.53-.35s-.15.17-.37.48a2.8,2.8,0,0,0-.5,1.49,2.69,2.69,0,0,0,.78,2.07,2.52,2.52,0,0,0,4.06-1.8,2.7,2.7,0,0,0-1-2,2.83,2.83,0,0,0-1.44-.63C124.42,361.73,124.2,361.77,124.19,361.73Z" style="fill: rgb(250, 250, 250); transform-origin: 124.864px 364.374px;" id="ellwnocfi8ps" class="animable"></path><path d="M167,397.58s.2-.13.61-.15a2.7,2.7,0,0,1,1.65.54,3,3,0,0,1,1.27,2.25,3,3,0,0,1-4.87,2.16,3,3,0,0,1-.82-2.45,2.81,2.81,0,0,1,.71-1.59c.29-.29.52-.37.53-.35s-.15.17-.37.48a2.8,2.8,0,0,0-.5,1.49A2.69,2.69,0,0,0,166,402a2.52,2.52,0,0,0,4.06-1.8,2.7,2.7,0,0,0-1-2,2.83,2.83,0,0,0-1.44-.63C167.21,397.59,167,397.63,167,397.58Z" style="fill: rgb(250, 250, 250); transform-origin: 167.674px 400.234px;" id="el4iksi5fq0np" class="animable"></path><path d="M229.25,200c16.05,3.58,16.16,26,12.86,38.2-1.56,5.79-4.48,11.85-2.41,17.48,1.46,4,5.21,6.89,6.29,11,1.3,5-1.69,9.95-4.08,14.52s-4.14,10.56-.85,14.54c-9.61.76-19.3,1.52-28.86.32s-19.12-4.49-26.28-10.94" style="fill: rgb(224, 224, 224); transform-origin: 216.113px 248.343px;" id="eltd3jh2rx309" class="animable"></path><path d="M233.12,245.41c15-22.56,3.16-40.07-5.32-47.12-5.06-4.2-11.62-6.07-18.06-7.39a69.84,69.84,0,0,0-19.32-1.68,34.6,34.6,0,0,0-18.13,6.32c-9.23,6.89-13.2,18.84-14.52,30.28a90.35,90.35,0,0,0,4.42,40.09,9.61,9.61,0,0,0,2.62,4.45c1.35,1.09,3.58,1.3,4.73,0" style="fill: rgb(224, 224, 224); transform-origin: 198.736px 230.191px;" id="el9pz7wydhvkp" class="animable"></path><path d="M182.23,323c-11.12-1.2-19-12.31-17.19-29.45l9.37-87.05-.65,6a7,7,0,0,1,7.44-5.89l34.71,2.53a21.06,21.06,0,0,1,19.39,23.45c-1.53,13.23-3.92,29.33-7.23,38.81-6.65,19.08-22.15,18.87-22.15,18.87l-1.35,14.46A20.24,20.24,0,0,1,182.23,323Z" style="fill: rgb(255, 190, 157); transform-origin: 200.112px 264.809px;" id="el6p5r2032ni" class="animable"></path><path d="M220.44,241.52c.38-.27,2,1.48,4.74,2s4.94-.51,5.17-.13c.12.17-.3.71-1.28,1.18a7,7,0,0,1-4.22.52,6.74,6.74,0,0,1-3.69-2C220.44,242.28,220.26,241.64,220.44,241.52Z" style="fill: rgb(38, 50, 56); transform-origin: 225.373px 243.351px;" id="elufb0kv66s7" class="animable"></path><path d="M193.81,238.47c.37-.27,2,1.48,4.73,2s4.94-.51,5.18-.13c.11.17-.31.71-1.29,1.18a7,7,0,0,1-4.21.52,6.74,6.74,0,0,1-3.7-2C193.8,239.23,193.63,238.59,193.81,238.47Z" style="fill: rgb(38, 50, 56); transform-origin: 198.74px 240.301px;" id="elcnfsv3rd8s" class="animable"></path><path d="M209.82,257.83c0-.16,1.75-.15,4.54,0,.71.06,1.39,0,1.59-.41a3.62,3.62,0,0,0-.09-2.14q-.53-2.69-1.1-5.63c-1.49-8-2.44-14.56-2.12-14.61s1.8,6.39,3.29,14.4q.52,3,1,5.65a4.07,4.07,0,0,1-.13,2.78,1.76,1.76,0,0,1-1.32.81,4.66,4.66,0,0,1-1.21-.05C211.51,258.28,209.8,258,209.82,257.83Z" style="fill: rgb(38, 50, 56); transform-origin: 213.467px 246.869px;" id="elxy83nd9vwtk" class="animable"></path><path d="M205.92,290.23a50.78,50.78,0,0,1-25-11.75s4.6,14.85,24.58,16.55Z" style="fill: rgb(235, 153, 110); transform-origin: 193.42px 286.755px;" id="el6i2318dznyu" class="animable"></path><path d="M207.5,264.15a5,5,0,0,0-4.05-2.6,4.52,4.52,0,0,0-3.38,1.1,2.85,2.85,0,0,0-.79,3.19,3.31,3.31,0,0,0,3.39,1.53,10.27,10.27,0,0,0,3.83-1.44,2.92,2.92,0,0,0,.92-.66.94.94,0,0,0,.18-1" style="fill: rgb(235, 153, 110); transform-origin: 203.378px 264.476px;" id="el0e8arvhvg1c8" class="animable"></path><path d="M201.51,258.26c.44.06-.08,3,2.06,5.54s5.33,2.78,5.28,3.2c0,.19-.8.44-2.13.24a7.46,7.46,0,0,1-4.44-2.5,6.49,6.49,0,0,1-1.54-4.61C200.85,258.88,201.31,258.21,201.51,258.26Z" style="fill: rgb(38, 50, 56); transform-origin: 204.789px 262.786px;" id="elyv5u9zm0sr" class="animable"></path><path d="M205.68,231.44c-.4.68-3.05-.15-6.29-.34s-6,.21-6.28-.52c-.13-.35.44-1,1.6-1.49a11,11,0,0,1,9.58.65C205.37,230.42,205.85,231.11,205.68,231.44Z" style="fill: rgb(224, 224, 224); transform-origin: 199.403px 229.996px;" id="elcc57jnks6cq" class="animable"></path><path d="M230.74,232.23c-.58.53-2.33-.45-4.57-.88s-4.22-.33-4.55-1.06c-.13-.34.28-.91,1.21-1.34a6.54,6.54,0,0,1,3.92-.34,6.44,6.44,0,0,1,3.43,1.9C230.86,231.28,231,232,230.74,232.23Z" style="fill: rgb(224, 224, 224); transform-origin: 226.229px 230.419px;" id="elhkf9lrnn71" class="animable"></path><path d="M225.82,196.73c-17.13-14.06-38.89-10.21-57,2.54-4,2.81-7.77,6.29-12.53,7.4-5.14,1.2-11.45-.26-15.06,3.59-4.22,4.5-1,12.48-4.43,17.62-3.14,4.74-10.44,5-13.94,9.46-2.74,3.52-2.29,8.45-2.08,12.91s-.33,9.67-4.08,12.09l38.2,22.8a10.61,10.61,0,0,0,5.64,1.64c6-.13,7.4-5.43,7.64-10,.18-3.4.08-7.06,2-9.86,2.29-3.3,6.87-4.49,9-7.89,3.79-6-2.34-14.06-.24-20.85,1.33-4.26,5.64-8.69,10-9.73s10.4-.76,13.5-1.55c9.85-2.48,19.54-6.94,25.42-16.06a10.76,10.76,0,0,0-2-14.12Z" style="fill: rgb(224, 224, 224); transform-origin: 173.171px 237.293px;" id="eldlax35via37" class="animable"></path><path d="M226.73,197.59a1.21,1.21,0,0,1-.32-.16,6,6,0,0,0-.94-.45,7,7,0,0,0-3.95-.31,19.43,19.43,0,0,0-5.84,2.47,69.64,69.64,0,0,0-7,4.83,25.34,25.34,0,0,1-4.26,2.57,22,22,0,0,1-5.13,1.65,68.61,68.61,0,0,1-11.81.82c-4.14.09-8.56.28-12.78,1.86a25,25,0,0,0-11,8.2,23.72,23.72,0,0,0-3.41,6.13c-.82,2.17-1.39,4.4-2.06,6.57a25.93,25.93,0,0,1-2.61,6.19,11.08,11.08,0,0,1-4.8,4.29,23.29,23.29,0,0,1-5.93,1.54A31.6,31.6,0,0,0,139.4,245a12.05,12.05,0,0,0-7.05,6.84c-1.17,2.92-.82,5.85-.89,8.33a15.85,15.85,0,0,1-.36,3.49,9.41,9.41,0,0,1-1.15,2.72,5.85,5.85,0,0,1-3.09,2.58,2.56,2.56,0,0,1-.6.14,1.43,1.43,0,0,1-.44,0h-.36a7.23,7.23,0,0,0,1.37-.28,5.8,5.8,0,0,0,3-2.59,9,9,0,0,0,1.08-2.67,16.63,16.63,0,0,0,.31-3.43c0-1.25-.06-2.58,0-4a13.52,13.52,0,0,1,.85-4.45,12.42,12.42,0,0,1,7.25-7.12,31.72,31.72,0,0,1,5.62-1.28,23.62,23.62,0,0,0,5.81-1.52,10.62,10.62,0,0,0,4.58-4.12,25.73,25.73,0,0,0,2.54-6.08c.66-2.15,1.23-4.4,2.07-6.6a24,24,0,0,1,3.48-6.27,25.41,25.41,0,0,1,11.2-8.36c4.32-1.61,8.8-1.78,12.95-1.86a68.52,68.52,0,0,0,11.74-.77,21.89,21.89,0,0,0,5.05-1.58,25.77,25.77,0,0,0,4.2-2.51c5-3.79,9.44-6.57,13-7.2a6.89,6.89,0,0,1,4,.41,4.86,4.86,0,0,1,.93.51Z" style="fill: rgb(255, 255, 255); transform-origin: 176.095px 232.699px;" id="el1kde7vs1hel" class="animable"></path><path d="M227.8,198.29s-.45-.12-1.3-.17a5.11,5.11,0,0,0-3.44,1.14,21.43,21.43,0,0,0-3.9,4.41,25,25,0,0,1-5.59,5.58c-4.76,3.47-11.68,5.73-19.41,6-1.93.12-3.9.2-5.9.42a24.89,24.89,0,0,0-6,1.24,14.82,14.82,0,0,0-2.81,1.35,12.59,12.59,0,0,0-2.4,2A16.36,16.36,0,0,0,174,226c-.73,2.08-1.21,4.23-1.77,6.33a57.56,57.56,0,0,1-1.93,6.13,31.14,31.14,0,0,1-2.78,5.57,18.14,18.14,0,0,1-4,4.41,21.11,21.11,0,0,1-5,2.7,15,15,0,0,0-4.5,2.64,10.8,10.8,0,0,0-2.61,4.06,23.64,23.64,0,0,0-1.15,4.38,46.12,46.12,0,0,1-1.63,7.72,10.83,10.83,0,0,1-3.32,4.92,7.06,7.06,0,0,1-3.41,1.57,4.35,4.35,0,0,1-1.31,0s.45,0,1.29-.13a7.12,7.12,0,0,0,3.3-1.63,10.63,10.63,0,0,0,3.18-4.86,46.08,46.08,0,0,0,1.53-7.68,24.32,24.32,0,0,1,1.15-4.47,11,11,0,0,1,2.69-4.23c2.6-2.49,6.53-3,9.49-5.4a17.78,17.78,0,0,0,3.91-4.31,29.37,29.37,0,0,0,2.72-5.47,55.91,55.91,0,0,0,1.91-6.08c.55-2.09,1-4.25,1.78-6.37a16.94,16.94,0,0,1,3.22-5.82,13.63,13.63,0,0,1,2.51-2.12,15.25,15.25,0,0,1,2.91-1.4,25.88,25.88,0,0,1,6.1-1.26c2-.21,4-.29,5.92-.4,7.68-.29,14.5-2.48,19.23-5.86s6.78-8,9.58-9.85a5.09,5.09,0,0,1,3.57-1.08A4.53,4.53,0,0,1,227.8,198.29Z" style="fill: rgb(38, 50, 56); transform-origin: 184.195px 237.236px;" id="eldrj1qja7w7f" class="animable"></path><path d="M147.28,281.36a5.32,5.32,0,0,0,1.21.45,4.92,4.92,0,0,0,3.54-.73,5.88,5.88,0,0,0,1.92-1.82,9.65,9.65,0,0,0,1.25-2.91c.6-2.23.52-4.89,1-7.8a10.4,10.4,0,0,1,1.71-4.3,11,11,0,0,1,3.88-3.18c1.52-.83,3.18-1.48,4.83-2.26a14.84,14.84,0,0,0,4.59-3.05,11.13,11.13,0,0,0,2.59-5.12,27,27,0,0,0,.59-6.08c0-2.1-.06-4.25.14-6.43a15.14,15.14,0,0,1,1.86-6.39A14.12,14.12,0,0,1,181.1,227a22.86,22.86,0,0,1,5.93-2.58c4.1-1.13,8.19-1.3,12-1.72a35.2,35.2,0,0,0,10.58-2.43A31.78,31.78,0,0,0,226,204.54a18.67,18.67,0,0,0,.85-2,13,13,0,0,0,.54-1.5c.13-.38.23-.69.3-.92s.12-.32.12-.32a1.11,1.11,0,0,1-.07.33c-.06.24-.15.55-.25.94a13.59,13.59,0,0,1-.49,1.52c-.22.59-.46,1.28-.81,2a31.74,31.74,0,0,1-16.41,16.06,35.62,35.62,0,0,1-10.7,2.51c-3.83.43-7.91.61-11.92,1.74a21.85,21.85,0,0,0-5.79,2.52,13.45,13.45,0,0,0-4.52,4.54,14.65,14.65,0,0,0-1.79,6.18c-.2,2.14-.13,4.27-.15,6.38a27.13,27.13,0,0,1-.62,6.2,11.59,11.59,0,0,1-2.72,5.33,15.34,15.34,0,0,1-4.75,3.14c-1.67.77-3.32,1.41-4.82,2.22a10.57,10.57,0,0,0-3.75,3,9.66,9.66,0,0,0-1.67,4.13c-.52,2.84-.47,5.53-1.11,7.8a9.91,9.91,0,0,1-1.32,3,6.17,6.17,0,0,1-2,1.86,5.07,5.07,0,0,1-3.67.66A2.88,2.88,0,0,1,147.28,281.36Z" style="fill: rgb(255, 255, 255); transform-origin: 187.545px 240.88px;" id="elh1x3srglm6" class="animable"></path><path d="M119.38,263.47s.43-.27,1.16-.9a12,12,0,0,0,2.6-3.27,23.46,23.46,0,0,0,2.19-6.27c.58-2.53.88-5.5,1.78-8.68a20,20,0,0,1,2-4.8,11.09,11.09,0,0,1,4-4,23.48,23.48,0,0,1,5.69-2,18.37,18.37,0,0,0,5.82-2.23,11.45,11.45,0,0,0,4-5.07,52.73,52.73,0,0,0,2.12-6.58,28,28,0,0,1,2.67-6.74,14.56,14.56,0,0,1,5.45-5.11c4.46-2.52,9.44-3.21,13.95-4.44A31.55,31.55,0,0,0,179.2,201a62.37,62.37,0,0,0,5.68-3.42c3.61-2.38,7.12-4.69,10.83-5.92a30.8,30.8,0,0,1,10.65-1.49,36.1,36.1,0,0,1,8.77,1.4c1.26.35,2.4.79,3.45,1.18s2,.83,2.79,1.27c.4.22.79.41,1.15.6l1,.59a17.39,17.39,0,0,1,1.5,1l.9.63.3.23a1.34,1.34,0,0,1-.33-.18l-.92-.6c-.4-.27-.92-.57-1.53-.92l-1-.56-1.16-.57c-.81-.43-1.77-.79-2.79-1.23s-2.18-.8-3.44-1.13a36.46,36.46,0,0,0-8.7-1.31,30.63,30.63,0,0,0-10.5,1.52c-3.64,1.23-7.1,3.52-10.7,5.92a64,64,0,0,1-5.73,3.47,32.45,32.45,0,0,1-6.54,2.47c-4.55,1.25-9.48,1.94-13.82,4.4a14.13,14.13,0,0,0-5.27,4.93,28,28,0,0,0-2.62,6.61,53.63,53.63,0,0,1-2.15,6.64,12,12,0,0,1-4.15,5.27,18.7,18.7,0,0,1-6,2.27,22.72,22.72,0,0,0-5.59,1.9,10.63,10.63,0,0,0-3.86,3.79,19.57,19.57,0,0,0-2,4.69c-.91,3.14-1.24,6.1-1.85,8.65a23.67,23.67,0,0,1-2.29,6.3,11.52,11.52,0,0,1-2.71,3.25,7,7,0,0,1-.9.63A1.74,1.74,0,0,1,119.38,263.47Z" style="fill: rgb(38, 50, 56); transform-origin: 172.8px 226.81px;" id="elrl7rdtbp4tr" class="animable"></path><path d="M201.09,244.44c0,.05-.38.38-1.17.64a6.23,6.23,0,0,1-3.24.12,6.29,6.29,0,0,1-2.88-1.5c-.6-.58-.83-1-.78-1.08s.39.33,1,.8a7.19,7.19,0,0,0,2.75,1.27,7.39,7.39,0,0,0,3,0A7.41,7.41,0,0,1,201.09,244.44Z" style="fill: rgb(235, 153, 110); transform-origin: 197.052px 243.984px;" id="elz9xw5yj07z8" class="animable"></path><path d="M228.3,248.28a2.64,2.64,0,0,1-1.35.64,6,6,0,0,1-6.41-2.47c-.51-.78-.63-1.36-.57-1.38s.31.48.87,1.16a6.62,6.62,0,0,0,2.7,2,6.77,6.77,0,0,0,3.34.34C227.75,248.43,228.26,248.21,228.3,248.28Z" style="fill: rgb(235, 153, 110); transform-origin: 224.128px 247.082px;" id="elynghsuzxur" class="animable"></path><path d="M202.44,256.91c-.05.14-.8,0-1.66.21s-1.42.75-1.53.66.34-.89,1.39-1.17S202.52,256.79,202.44,256.91Z" style="fill: rgb(235, 153, 110); transform-origin: 200.84px 257.156px;" id="elq8wqjjv8y2k" class="animable"></path><path d="M210.63,266.76c.13-.07.44.45.18,1.07s-.85.78-.89.64.24-.41.4-.84S210.49,266.81,210.63,266.76Z" style="fill: rgb(235, 153, 110); transform-origin: 210.413px 267.635px;" id="el8e2q1neekmn" class="animable"></path><path d="M200.91,272.68a14.61,14.61,0,0,0-2.25-3.57,14.3,14.3,0,0,0-3.49-2.38c0-.06.51,0,1.27.26a7.53,7.53,0,0,1,4.25,4.41C201,272.17,201,272.67,200.91,272.68Z" style="fill: rgb(235, 153, 110); transform-origin: 198.066px 269.694px;" id="el8phikvdlf6e" class="animable"></path><path d="M196.43,259.16a2.91,2.91,0,0,1,.71-2.23,4.11,4.11,0,0,1,2.13-1.49,25.82,25.82,0,0,0,2.93-.77,4.4,4.4,0,0,0,2-2,4.18,4.18,0,0,0,.42-2.32,7.08,7.08,0,0,0-.67-2.14,3.16,3.16,0,0,1,1,2.1,4.39,4.39,0,0,1-.36,2.57,4.7,4.7,0,0,1-2.25,2.26,21.06,21.06,0,0,1-3,.76,3.83,3.83,0,0,0-2,1.26A6,6,0,0,0,196.43,259.16Z" style="fill: rgb(235, 153, 110); transform-origin: 200.71px 253.685px;" id="eliuk3d8vkveb" class="animable"></path><path d="M204.25,237.3c-.08,0-.32-.64-1.06-1.43a5.46,5.46,0,0,0-3.66-1.78,5.56,5.56,0,0,0-3.83,1.4c-.81.72-1.11,1.36-1.19,1.32a2.88,2.88,0,0,1,.94-1.58,5.26,5.26,0,0,1,8,.4A2.92,2.92,0,0,1,204.25,237.3Z" style="fill: rgb(235, 153, 110); transform-origin: 199.38px 235.438px;" id="elygrhx64uhqh" class="animable"></path><path d="M205.67,237.59c-.15,0-.3-.39-.34-.89s0-.92.19-.93.29.38.33.89S205.81,237.58,205.67,237.59Z" style="fill: rgb(235, 153, 110); transform-origin: 205.588px 236.68px;" id="elylosynzv3w" class="animable"></path><path d="M229.7,241.06c-.08,0-.3-.49-.9-1.14a4.66,4.66,0,0,0-6.16-.71c-.73.49-1.07,1-1.14.91s.19-.59.92-1.2a4.65,4.65,0,0,1,6.66.76A2.41,2.41,0,0,1,229.7,241.06Z" style="fill: rgb(235, 153, 110); transform-origin: 225.595px 239.456px;" id="eltkubvgr2fe" class="animable"></path><path d="M130,245.9a4.72,4.72,0,0,1,.33-1.14,7.52,7.52,0,0,1,2.07-2.69,13.59,13.59,0,0,1,4.76-2.48c2-.65,4.36-1.05,6.79-2a13.64,13.64,0,0,0,6.4-5.35,45.64,45.64,0,0,0,4.21-8.85c1.3-3.2,2.74-6.68,5.36-9.53a13.13,13.13,0,0,1,4.78-3.33,27.84,27.84,0,0,1,5.78-1.54c2-.36,3.94-.66,5.81-1.16a24.63,24.63,0,0,0,5.27-2.16,103.61,103.61,0,0,0,9-6,33.56,33.56,0,0,1,8.74-4.66,27.66,27.66,0,0,1,8.52-1.3,54.85,54.85,0,0,1,12.35,1.65c1.44.33,2.54.62,3.29.82l.85.23.28.1a1.73,1.73,0,0,1-.3,0l-.86-.19-3.3-.73a58,58,0,0,0-12.3-1.47,27.45,27.45,0,0,0-8.4,1.34,33.84,33.84,0,0,0-8.6,4.64,102.91,102.91,0,0,1-9.07,6.09,25,25,0,0,1-5.38,2.21c-1.91.51-3.88.81-5.85,1.17a27,27,0,0,0-5.67,1.51,12.8,12.8,0,0,0-4.61,3.2c-2.54,2.75-4,6.17-5.28,9.36a45.18,45.18,0,0,1-4.31,8.91,14,14,0,0,1-6.62,5.46c-2.48.94-4.85,1.31-6.83,1.93a13.68,13.68,0,0,0-4.72,2.36,7.53,7.53,0,0,0-2.1,2.57C130.09,245.5,130,245.91,130,245.9Z" style="fill: rgb(255, 255, 255); transform-origin: 177.295px 219.805px;" id="elmnnyl30dppk" class="animable"></path><path d="M362.16,358.9l-39.57,4.69L324,385.83,229.3,402,224.93,400c-1.34-.62-2.82-1.34-4.47-2.21a19.32,19.32,0,0,1-5.08-3.91c-1.79-1.91-4.06-4.54-4.86-6.35-1-2.25-4.18-2.19-4.64,0s2.14,8.4,8,13.71-6.41,4.56-10.9,4.37-18.41-.13-19.52,1.21c-1.64,1.95.2,4.12,4.69,4.21s17.95,1.29,17.8,3.66-23,1.05-23,1.05-4.86-1.07-5.13,1.66c-.48,4.92,23.88,4.49,26.19,4.39,1.61-.07,1.54,2.52-.19,2.5s-22.8-1.81-23.34,3.19c-.41,3.84,20.05-.17,24.26,2.62s-15.86,1.45-16.11,5.14c-.09,1.37,0,2.41,11.63,1.52,6.24-.48,17.91-2.84,27.6-5l4.42-1s115.24-1.62,124.79-8.26C364.38,417.39,362.16,358.9,362.16,358.9Z" style="fill: rgb(255, 190, 157); transform-origin: 270.145px 397.995px;" id="eljys1ux841rl" class="animable"></path><path d="M287.48,392.08l20.15-10.18,15.91-3.42s10.37,19.55,8.39,20.17-5.69,1.55-11-12.1c0,0,5.07,16.61,1.79,16.41s-8.08-15.46-8.08-15.46Z" style="fill: rgb(255, 190, 157); transform-origin: 309.831px 390.721px;" id="elgt27i8qpgqw" class="animable"></path><path d="M324.13,379.34a4.37,4.37,0,0,1,.39.71l1,2.09c.87,1.87,2.1,4.49,3.61,7.71.75,1.64,1.58,3.43,2.46,5.34a6.92,6.92,0,0,1,1,3.21,2.22,2.22,0,0,1-.89,1.62,3.12,3.12,0,0,1-1.8.56,3.44,3.44,0,0,1-1.85-.5,5.14,5.14,0,0,1-1.41-1.3,19.8,19.8,0,0,1-1.85-3.38c-1.13-2.33-2.29-4.74-3.47-7.21l-.73-1.51.49-.19c.82,2.51,1.63,5,2.41,7.33q.57,1.77,1.14,3.48a11.89,11.89,0,0,1,.79,3.48,3.27,3.27,0,0,1-.44,1.74,2.41,2.41,0,0,1-1.42,1.05,3.49,3.49,0,0,1-3.11-.86,7.21,7.21,0,0,1-1.66-2.48c-.39-.87-.72-1.7-1.05-2.49-1.29-3.14-2.34-5.69-3.08-7.51-.34-.85-.61-1.54-.82-2.05a5.76,5.76,0,0,1-.25-.72,3.59,3.59,0,0,1,.35.68c.22.51.52,1.17.9,2,.78,1.81,1.88,4.33,3.23,7.45.35.78.7,1.61,1.08,2.47a6.88,6.88,0,0,0,1.58,2.33,3.1,3.1,0,0,0,2.71.74,2,2,0,0,0,1.15-.86,2.8,2.8,0,0,0,.35-1.5,11,11,0,0,0-.78-3.32L323,394c-.79-2.37-1.6-4.82-2.43-7.33l.48-.19.73,1.5,3.46,7.22a18.77,18.77,0,0,0,1.79,3.29,3.53,3.53,0,0,0,2.86,1.63,2.58,2.58,0,0,0,1.52-.46,1.77,1.77,0,0,0,.72-1.28,6.84,6.84,0,0,0-.91-3c-.87-1.92-1.67-3.72-2.41-5.36-1.44-3.25-2.62-5.9-3.45-7.79l-.92-2.12A6.76,6.76,0,0,1,324.13,379.34Z" style="fill: rgb(235, 153, 110); transform-origin: 323.09px 391.494px;" id="elgqf4vuqe857" class="animable"></path><path d="M314.12,388.69c0,.15-5.8,1.06-13,2.05s-13.05,1.68-13.07,1.54,5.8-1.06,13-2S314.1,388.55,314.12,388.69Z" style="fill: rgb(235, 153, 110); transform-origin: 301.085px 390.486px;" id="elxtb75zsjqk" class="animable"></path><path d="M315,380.25a2.44,2.44,0,0,1,1.45.06,5.62,5.62,0,0,1,4.26,5.12c.05.91-.14,1.45-.2,1.43a11.58,11.58,0,0,1-.16-1.39,6,6,0,0,0-4-4.81A12.13,12.13,0,0,1,315,380.25Z" style="fill: rgb(235, 153, 110); transform-origin: 317.859px 383.514px;" id="el1szvwyxajx8" class="animable"></path><path d="M327.56,386.86c.06-.1,1.59,1,4.4,2.15.7.27,1.48.54,2.33.8a9.34,9.34,0,0,0,2.72.56,2.69,2.69,0,0,0,2.43-1.27,2.29,2.29,0,0,0-.79-2.7,12.92,12.92,0,0,0-2.89-1.6l-2.84-1.36-4.8-2.33-3.22-1.61a5.93,5.93,0,0,1-1.15-.66,7.23,7.23,0,0,1,1.23.47l3.29,1.46,4.85,2.23,2.86,1.34a13.08,13.08,0,0,1,3,1.67,3.38,3.38,0,0,1,1,1.52,2.28,2.28,0,0,1-.13,1.81,3.16,3.16,0,0,1-2.88,1.51,9.46,9.46,0,0,1-2.85-.63c-.85-.28-1.64-.57-2.34-.87a19.17,19.17,0,0,1-3.19-1.7A5.31,5.31,0,0,1,327.56,386.86Z" style="fill: rgb(235, 153, 110); transform-origin: 331.929px 384.848px;" id="el34xx2occb39" class="animable"></path></g><g id="freepik--Hearts--inject-2" class="animable" style="transform-origin: 203.708px 143.518px;"><g id="elte6rjiymf9j"><g style="opacity: 0.2; transform-origin: 196.202px 162.478px;" class="animable"><path d="M209,159.33a7.89,7.89,0,0,0-1.79-4.43,7.55,7.55,0,0,0-3.83-2.68,6.25,6.25,0,0,0-4.87.66,6.12,6.12,0,0,0-2.09,2.11,6.33,6.33,0,0,0-1.72-2.09,6.25,6.25,0,0,0-4.76-1.22,7.63,7.63,0,0,0-4.12,2.21,8,8,0,0,0-2.29,4.19,9.76,9.76,0,0,0,.86,6,13.73,13.73,0,0,0,4.45,4.68c3,2,6.89,4.59,6.89,4.59s3.57-2.36,6.75-4a13.69,13.69,0,0,0,5-4.14A9.71,9.71,0,0,0,209,159.33Z" style="fill: rgb(255, 114, 94); transform-origin: 196.202px 162.478px;" id="eln3fxf5ablm" class="animable"></path></g></g><path d="M206.56,123.63a4.88,4.88,0,0,0-2-2.11,4.71,4.71,0,0,0-2.76-.67,3.74,3.74,0,0,0-3.32,3.11,3.62,3.62,0,0,0-1.43-.8,3.78,3.78,0,0,0-3,.36,4.63,4.63,0,0,0-1.84,2.16,4.9,4.9,0,0,0-.37,2.87,6,6,0,0,0,1.81,3.21,8.41,8.41,0,0,0,3.56,1.67c2.12.49,4.9,1.07,4.9,1.07s1.5-2.12,2.93-3.77a8.26,8.26,0,0,0,1.89-3.44A5.85,5.85,0,0,0,206.56,123.63Z" style="fill: rgb(255, 114, 94); transform-origin: 199.419px 127.67px;" id="elgqn6pbxcazm" class="animable"></path><path d="M224,117.54a2.62,2.62,0,0,0-.21-1.51,2.41,2.41,0,0,0-1-1.13,2,2,0,0,0-1.56-.17,1.92,1.92,0,0,0-.82.49,1.94,1.94,0,0,0-.37-.78,2,2,0,0,0-1.38-.75,2.5,2.5,0,0,0-1.45.37,2.54,2.54,0,0,0-1,1.12,3.12,3.12,0,0,0-.2,1.93,4.26,4.26,0,0,0,1,1.8c.76.86,1.78,2,1.78,2s1.29-.45,2.4-.72a4.48,4.48,0,0,0,1.86-.9A3.07,3.07,0,0,0,224,117.54Z" style="fill: rgb(255, 114, 94); transform-origin: 219.986px 117.298px;" id="elnkd0kcmbfw" class="animable"></path></g><g id="freepik--Plants--inject-2" class="animable" style="transform-origin: 260.046px 335.608px;"><path d="M412.92,341.13c9.11,3.18,21,.34,28.78-5.35s13.4-13.85,18.37-22.12c2.12-3.52,4.19-7.2,4.86-11.26s-.32-8.64-3.47-11.29c-4.89-4.12-12.39-2-17.95,1.14a61.93,61.93,0,0,0-30.59,48.88" style="fill: rgb(255, 114, 94); transform-origin: 439.024px 315.641px;" id="elm04hzgq1w2" class="animable"></path><path d="M422.7,362.93c5.47,7.21,14.87,10.43,23.91,10.84s18-2.08,26.44-5.32c3.07-1.18,6.42-2.79,7.48-5.9a7.54,7.54,0,0,0-1.61-7,15.59,15.59,0,0,0-6.1-4.16c-8.32-3.54-17.86-3.71-26.61-1.44s-16.41,7.35-23.51,12.95" style="fill: rgb(255, 114, 94); transform-origin: 451.752px 361.132px;" id="elivdkrelxk9" class="animable"></path><path d="M412.79,302.11c7.54.15,13.24-6.46,16.66-13.18a48.89,48.89,0,0,0,4.49-30.46c-.69-3.85-2.15-8-5.6-9.86s-8.06-.64-11,2-4.54,6.51-5.72,10.31c-4,13.1-3.17,28.15,1.17,41.15" style="fill: rgb(255, 114, 94); transform-origin: 421.855px 274.914px;" id="elelctmjhnoa" class="animable"></path><path d="M388,343.81c12.86-21.88,15-48.65,7.41-72.86-1.24-3.93-3.56-8.42-7.67-8.68-4.55-.29-7.4,4.78-8.66,9.16-4.4,15.38-3.47,31.71-2.49,47.67.6,9.84,4,18.25,11.41,24.71" style="fill: rgb(255, 114, 94); transform-origin: 387.783px 303.034px;" id="eljq7cest4hbm" class="animable"></path><path d="M374.65,352.81a52.59,52.59,0,0,0-31.19-33.08c-3.42-1.29-7.76-2-10.3.59s-1.73,6.85-.13,10.05c2.59,5.16,6.79,9.31,11,13.3,3.81,3.62,7.76,7.26,12.58,9.37s13.66,2.64,18.06-.23" style="fill: rgb(255, 114, 94); transform-origin: 353.101px 336.682px;" id="elyz6r06nnofs" class="animable"></path><path d="M454.35,296.6s-.07.08-.22.2l-.69.54-2.7,2-1.95,1.44c-.71.55-1.44,1.18-2.24,1.83-1.6,1.33-3.48,2.76-5.37,4.56l-3,2.75c-1,1-2.06,2.05-3.15,3.13-2.21,2.13-4.35,4.61-6.66,7.18a142.11,142.11,0,0,0-23.5,38c-1.26,3.21-2.52,6.24-3.44,9.17-.47,1.45-1,2.84-1.39,4.21l-1.1,3.94c-.77,2.5-1.21,4.82-1.69,6.84-.22,1-.45,1.95-.63,2.82s-.29,1.67-.41,2.39c-.25,1.41-.45,2.51-.6,3.32-.07.34-.12.63-.17.85s-.07.3-.08.29a1.27,1.27,0,0,1,0-.29c0-.23.06-.52.11-.87.12-.81.28-1.92.49-3.33l.36-2.41c.16-.88.37-1.82.58-2.84.45-2,.86-4.36,1.6-6.88q.51-1.89,1.08-4c.38-1.38.89-2.78,1.36-4.24.9-2.95,2.14-6,3.4-9.22a138.44,138.44,0,0,1,23.59-38.17c2.32-2.56,4.49-5,6.73-7.16,1.1-1.08,2.12-2.16,3.18-3.12l3.07-2.73c1.91-1.79,3.82-3.2,5.43-4.51.82-.64,1.57-1.25,2.28-1.78l2-1.41c1.17-.81,2.09-1.46,2.77-1.92l.72-.49A1.16,1.16,0,0,1,454.35,296.6Z" style="fill: rgb(38, 50, 56); transform-origin: 424.851px 344.33px;" id="el3wan5sqnqd5" class="animable"></path><path d="M471.38,357.25a4.8,4.8,0,0,1-.89-.15c-.57-.1-1.41-.32-2.5-.51a71.17,71.17,0,0,0-9.31-1.13,67.91,67.91,0,0,0-55.14,22.94,70,70,0,0,0-5.75,7.41c-.64.9-1.07,1.65-1.41,2.13a6.2,6.2,0,0,1-.51.73,4.47,4.47,0,0,1,.41-.79c.3-.51.7-1.28,1.31-2.2a62.68,62.68,0,0,1,5.63-7.56A66.78,66.78,0,0,1,458.71,355a62.94,62.94,0,0,1,9.33,1.33c1.09.22,1.92.48,2.48.62A5.57,5.57,0,0,1,471.38,357.25Z" style="fill: rgb(38, 50, 56); transform-origin: 433.625px 371.748px;" id="eluchv69k5xc" class="animable"></path><path d="M423.9,257.35a1.82,1.82,0,0,1,0,.34c-.05.25-.12.57-.2,1-.21.9-.49,2.16-.85,3.77-.74,3.26-1.87,8-3.29,13.8-2.83,11.65-6.95,27.69-11.23,45.46-2.13,8.89-4.06,17.39-5.73,25.13s-3,14.75-4.05,20.65c-.56,2.94-1,5.62-1.37,8s-.72,4.38-1,6-.45,2.9-.59,3.82c-.07.4-.13.73-.17,1a1.3,1.3,0,0,1-.08.33,1.74,1.74,0,0,1,0-.34c0-.26.06-.59.11-1,.11-.92.27-2.2.48-3.83s.48-3.7.86-6.05.75-5,1.28-8c1-5.91,2.33-12.92,3.93-20.68s3.55-16.27,5.68-25.16c4.29-17.78,8.47-33.8,11.41-45.42,1.45-5.78,2.64-10.47,3.47-13.76l1-3.74c.1-.4.19-.72.26-1A1,1,0,0,1,423.9,257.35Z" style="fill: rgb(38, 50, 56); transform-origin: 409.62px 322px;" id="el4t8m0j76d1" class="animable"></path><path d="M394.38,384.85a.91.91,0,0,1-.08-.26l-.18-.79c-.16-.75-.37-1.77-.63-3.05-.55-2.65-1.27-6.49-2.09-11.25-1.65-9.52-3.61-22.74-4.81-37.44-.58-7.35-.9-14.37-1-20.76s-.05-12.15.15-17c.06-2.41.22-4.6.33-6.51s.23-3.57.35-4.91.22-2.34.29-3.1c0-.32.06-.59.09-.8a1,1,0,0,1,.05-.28,1.3,1.3,0,0,1,0,.28l0,.81c0,.76-.1,1.8-.17,3.1s-.19,3-.26,4.92-.2,4.09-.23,6.5c-.14,4.83-.16,10.58,0,16.95s.51,13.39,1.1,20.73c1.2,14.68,3.08,27.89,4.62,37.42.77,4.77,1.43,8.62,1.9,11.28.22,1.29.39,2.31.52,3.06.05.32.09.59.12.8A1.18,1.18,0,0,1,394.38,384.85Z" style="fill: rgb(38, 50, 56); transform-origin: 389.995px 331.775px;" id="ely5qv5s4kez8" class="animable"></path><path d="M395.33,387.63a5.18,5.18,0,0,1-.33-.76l-.85-2.2-.6-1.59-.83-1.85-.94-2.12c-.33-.76-.77-1.52-1.17-2.33l-1.31-2.55-1.57-2.69c-1-1.89-2.36-3.76-3.65-5.81a139.36,139.36,0,0,0-9.69-12.37,151.28,151.28,0,0,0-11.11-11.12c-1.84-1.56-3.54-3.12-5.25-4.42l-2.43-1.94-2.31-1.71c-1.46-1.1-2.83-2-4-2.84s-2.24-1.52-3.11-2l-2-1.26a4.29,4.29,0,0,1-.67-.48,4.29,4.29,0,0,1,.74.37l2.05,1.17c.9.49,2,1.16,3.18,2s2.62,1.69,4.1,2.77l2.34,1.68,2.47,1.92c1.73,1.3,3.44,2.85,5.3,4.4A144.64,144.64,0,0,1,374.85,353a132.38,132.38,0,0,1,9.69,12.46c1.28,2.06,2.61,4,3.63,5.86.53.94,1,1.85,1.54,2.72l1.28,2.59c.4.82.82,1.59,1.14,2.35l.9,2.16.78,1.87c.21.59.39,1.13.56,1.62l.74,2.24A3.65,3.65,0,0,1,395.33,387.63Z" style="fill: rgb(38, 50, 56); transform-origin: 369.42px 357.61px;" id="elva9aalw3la8" class="animable"></path><path d="M449.58,322c0,.09-1.55.09-4.06.23a76,76,0,0,0-9.7,1.18,74.75,74.75,0,0,0-9.46,2.46c-2.38.79-3.83,1.36-3.86,1.27a3.58,3.58,0,0,1,1-.52c.64-.31,1.58-.7,2.76-1.15a57.84,57.84,0,0,1,19.29-3.67c1.26,0,2.28,0,3,.06A3.37,3.37,0,0,1,449.58,322Z" style="fill: rgb(38, 50, 56); transform-origin: 436.04px 324.475px;" id="elzuj5rski2d" class="animable"></path><path d="M459.28,369.34c-.18.1-1.63-4.09-5.29-8s-7.68-5.69-7.57-5.87a9.22,9.22,0,0,1,2.62,1.16,23,23,0,0,1,9.28,10A8.68,8.68,0,0,1,459.28,369.34Z" style="fill: rgb(38, 50, 56); transform-origin: 452.849px 362.406px;" id="el0vlg0iuagl8d" class="animable"></path><path d="M426.21,275.11c.13.13-2.24,2.47-4.83,5.65s-4.41,6-4.57,5.87a26.51,26.51,0,0,1,4.11-6.25A26,26,0,0,1,426.21,275.11Z" style="fill: rgb(38, 50, 56); transform-origin: 421.513px 280.872px;" id="eluenq4bfevm" class="animable"></path><path d="M418.45,261.69a23.77,23.77,0,0,1,1.17,5.08c.48,2.83.74,5.15.57,5.17a22.7,22.7,0,0,1-1.17-5.07C418.54,264,418.28,261.72,418.45,261.69Z" style="fill: rgb(38, 50, 56); transform-origin: 419.32px 266.815px;" id="elih0ixz0ho5h" class="animable"></path><path d="M394.4,303.79c.15.07-1.54,3.62-3.77,7.91s-4.15,7.72-4.3,7.64,1.54-3.62,3.77-7.91S394.25,303.71,394.4,303.79Z" style="fill: rgb(38, 50, 56); transform-origin: 390.365px 311.565px;" id="elm9fctlar8a" class="animable"></path><path d="M380.08,289.5c.15-.08,1.58,2.49,3.19,5.72s2.8,5.93,2.65,6-1.58-2.49-3.19-5.73S379.93,289.57,380.08,289.5Z" style="fill: rgb(38, 50, 56); transform-origin: 383px 295.36px;" id="elyihwkpl3g5t" class="animable"></path><path d="M359.05,338.37c0,.17-2.6-.33-5.78-.54s-5.78-.11-5.79-.28,2.59-.56,5.84-.33A16.5,16.5,0,0,1,359.05,338.37Z" style="fill: rgb(38, 50, 56); transform-origin: 353.265px 337.777px;" id="eliv48gy20eu" class="animable"></path><path d="M373.41,381.57l7.16,37.64a5.27,5.27,0,0,0,5.18,4.29h21.14a5.28,5.28,0,0,0,5.21-4.41l6.22-37.52Z" style="fill: rgb(38, 50, 56); transform-origin: 395.865px 402.535px;" id="eljnajgpz5pz" class="animable"></path><polygon points="375.74 393.81 416.17 393.81 418.32 381.57 373.41 381.57 375.74 393.81" style="fill: rgb(69, 90, 100); transform-origin: 395.865px 387.69px;" id="eln3jb0gnzj4s" class="animable"></polygon><polygon points="375.74 393.81 376.59 398.27 415.55 398.27 416.17 393.81 375.74 393.81" style="fill: rgb(250, 250, 250); transform-origin: 395.955px 396.04px;" id="els6076jiyhsb" class="animable"></polygon><path d="M119.26,339.79a39.23,39.23,0,0,1-4,3.07,93,93,0,0,0-17.08,16.79,37.29,37.29,0,0,1-3.13,3.9,20.37,20.37,0,0,1,2.61-4.29,69,69,0,0,1,7.87-9.22,70.25,70.25,0,0,1,9.35-7.71A21.39,21.39,0,0,1,119.26,339.79Z" style="fill: rgb(38, 50, 56); transform-origin: 107.155px 351.67px;" id="elqd58ymcgw8" class="animable"></path><path d="M116,326.53c.25.06-.59,4.35-1.88,9.58s-2.52,9.42-2.76,9.35.59-4.37,1.88-9.59S115.78,326.47,116,326.53Z" style="fill: rgb(38, 50, 56); transform-origin: 113.681px 335.995px;" id="elbnpiiyi28a" class="animable"></path><path d="M114.61,325.8c-.64.29-.82,1.85-.29,2.61a2,2,0,0,0,2.48.43,2.1,2.1,0,0,0,.83-2.8,2.07,2.07,0,0,0-3.09-.19" style="fill: rgb(69, 90, 100); transform-origin: 115.938px 327.17px;" id="el4d3nmro4kdp" class="animable"></path><path d="M121.35,331.84c.11.23-1.43,1.15-3.44,2.07s-3.71,1.46-3.82,1.23,1.44-1.15,3.44-2.07S121.25,331.61,121.35,331.84Z" style="fill: rgb(38, 50, 56); transform-origin: 117.72px 333.49px;" id="el5vb2constpu" class="animable"></path><path d="M121.2,330.34a3.06,3.06,0,0,0-1.22,1.54,1.37,1.37,0,0,0,.72,1.67,1.27,1.27,0,0,0,1.21-.26,2.28,2.28,0,0,0,.7-1.07,1.94,1.94,0,0,0,.08-1.36,1,1,0,0,0-1.12-.6" style="fill: rgb(69, 90, 100); transform-origin: 121.344px 331.923px;" id="elwyginihuhro" class="animable"></path><path d="M121.15,338.06a1.78,1.78,0,1,0,.1,3.55,1.79,1.79,0,1,0-.5-3.54" style="fill: rgb(69, 90, 100); transform-origin: 121.089px 339.828px;" id="elfax68fu5awf" class="animable"></path><path d="M80.19,285.94a20.36,20.36,0,0,1,.22,3.1c.07,2.15.16,5,.28,8.47.19,7.14.39,17,.56,27.92s.26,20.78.29,27.92c0,3.46,0,6.32,0,8.47a21.67,21.67,0,0,1-.13,3.1,19.19,19.19,0,0,1-.23-3.1c-.07-2.15-.16-5-.27-8.46-.19-7.14-.4-17-.56-27.93s-.27-20.78-.29-27.93c0-3.46,0-6.31,0-8.46A19,19,0,0,1,80.19,285.94Z" style="fill: rgb(38, 50, 56); transform-origin: 80.7973px 325.43px;" id="el618cvacggq5" class="animable"></path><path d="M94.09,280a13.77,13.77,0,1,1-14.82-12.65A13.78,13.78,0,0,1,94.09,280Z" style="fill: rgb(255, 114, 94); transform-origin: 80.3621px 281.077px;" id="elyyryxsvlbd" class="animable"></path><g id="elyjlqubx67a"><g style="opacity: 0.3; transform-origin: 74.6086px 284.37px;" class="animable"><path d="M79.79,294.88a28.64,28.64,0,0,1,.12-4,22.68,22.68,0,0,0-1.41-9.27A12.83,12.83,0,0,0,72.28,275a19.57,19.57,0,0,0-3.76-1c0-.05.38-.14,1.08-.14a8.26,8.26,0,0,1,2.93.59,12.64,12.64,0,0,1,6.82,6.91,20.43,20.43,0,0,1,1.21,9.66A12.55,12.55,0,0,1,79.79,294.88Z" id="eloegklg6wbq" class="animable" style="transform-origin: 74.6086px 284.37px;"></path></g></g><g id="elrldwzecv4b"><g style="opacity: 0.3; transform-origin: 86.085px 279.781px;" class="animable"><path d="M92.64,275.68c0,.28-3.86,0-7.64,2.48s-5.15,6.1-5.39,6,.07-1,.8-2.35a12.35,12.35,0,0,1,9.76-6.32A4.53,4.53,0,0,1,92.64,275.68Z" id="el42dygy2uh6t" class="animable" style="transform-origin: 86.085px 279.781px;"></path></g></g><g id="elzn5sgmtxbn"><g style="opacity: 0.3; transform-origin: 80.3083px 273.907px;" class="animable"><path d="M86.48,276.78c-.15,0-.33-.91-1.18-2.08a6.22,6.22,0,0,0-9.66-.81c-1,1-1.36,1.92-1.51,1.86s0-1.05,1-2.3a6.46,6.46,0,0,1,10.68.9C86.64,275.75,86.58,276.78,86.48,276.78Z" id="el40z23yvhrge" class="animable" style="transform-origin: 80.3083px 273.907px;"></path></g></g><g id="elndk4sc9sus"><g style="opacity: 0.3; transform-origin: 80.6525px 275.78px;" class="animable"><path d="M82.68,279.42c-.27,0-.56-1.87-1.72-3.84s-2.62-3.19-2.47-3.41,2,.75,3.26,2.95S82.92,279.44,82.68,279.42Z" id="elnpiuflwu1rb" class="animable" style="transform-origin: 80.6525px 275.78px;"></path></g></g><g id="elceixkf43ypq"><g style="opacity: 0.3; transform-origin: 79.3812px 276.963px;" class="animable"><path d="M81.34,275.32c.06.27-1.08.63-2,1.55s-1.59,2-1.84,1.85.07-1.34,1.21-2.51S81.33,275.1,81.34,275.32Z" id="elevv4lwlbowl" class="animable" style="transform-origin: 79.3812px 276.963px;"></path></g></g><path d="M50.84,328.23c.24-.08,4,11.07,8.46,24.91s7.83,25.12,7.59,25.2-4-11.08-8.46-24.92S50.6,328.3,50.84,328.23Z" style="fill: rgb(38, 50, 56); transform-origin: 58.865px 353.285px;" id="el19r1biqbn4lj" class="animable"></path><path d="M59.66,355.75c-.15.17-4-2.89-8.86-6.61s-8.63-6.94-8.46-7.15,4.18,2.68,9,6.43S59.85,355.55,59.66,355.75Z" style="fill: rgb(38, 50, 56); transform-origin: 51.0007px 348.868px;" id="el4lhhcfihewg" class="animable"></path><path d="M40.19,340.85c-.74.68-.47,2.2.37,3s2.8.44,3.43-.57a2.26,2.26,0,0,0-.85-3.06,2.49,2.49,0,0,0-3.14.83" style="fill: rgb(69, 90, 100); transform-origin: 42.0171px 342.129px;" id="elzyer1jeiv4" class="animable"></path><path d="M59.66,322.78c.28.06-.55,4-2.19,8.69s-2.65,8.49-2.88,8.45.37-4.06,2-8.74S59.44,322.74,59.66,322.78Z" style="fill: rgb(38, 50, 56); transform-origin: 57.1282px 331.35px;" id="el94i0awtsxrn" class="animable"></path><path d="M59.23,319.35c-.92.65-1,1-1.31,2.12a2.1,2.1,0,0,0,1.26,2.72,2.43,2.43,0,0,0,2.42-1.64,2.9,2.9,0,0,0,0-2.76,1.61,1.61,0,0,0-2.47-.27" style="fill: rgb(69, 90, 100); transform-origin: 59.867px 321.628px;" id="elko7agfoybrr" class="animable"></path><path d="M43.44,352.32c-.09-.23,1.54-1.14,3.64-2s3.89-1.41,4-1.18-1.52,1.14-3.63,2S43.53,352.56,43.44,352.32Z" style="fill: rgb(38, 50, 56); transform-origin: 47.2608px 350.732px;" id="elj3eb1y37qq" class="animable"></path><path d="M40.15,350.79c-.63.32-.89,1.85-.86,2.49a2.08,2.08,0,0,0,1,1.57,2.46,2.46,0,1,0-.12-4.06" style="fill: rgb(69, 90, 100); transform-origin: 41.6826px 352.779px;" id="elqym63zevj77" class="animable"></path><path d="M46.77,325.64a3.28,3.28,0,0,0,5.66,2.89,2.4,2.4,0,0,0,.64-1.87,3.81,3.81,0,0,0-3-2.72,3.41,3.41,0,0,0-3.34,1.7" style="fill: rgb(69, 90, 100); transform-origin: 49.8853px 326.78px;" id="el689kty5bprx" class="animable"></path><path d="M94,339.36A17.24,17.24,0,0,1,92.89,343l-3,8.63c-1.15,3.18-2.19,6.06-3.11,8.62a17.41,17.41,0,0,1-1.46,3.51c-.26-.08,1.29-5.69,3.71-12.43S93.73,339.25,94,339.36Z" style="fill: rgb(38, 50, 56); transform-origin: 89.6458px 351.559px;" id="elpyhslzisqbp" class="animable"></path><path d="M108.61,333a11.79,11.79,0,1,1-9.09-14A11.8,11.8,0,0,1,108.61,333Z" style="fill: rgb(255, 114, 94); transform-origin: 97.0797px 330.535px;" id="el18dne4cuuch" class="animable"></path><g id="els3auqp0m0ih"><g style="opacity: 0.3; transform-origin: 92.7099px 331.774px;" class="animable"><path d="M93.25,341.78a18.38,18.38,0,0,1,1-3.26,19.66,19.66,0,0,0,1.08-7.92,11,11,0,0,0-3.45-7,20.55,20.55,0,0,0-2.8-1.81c0-.08,1.44,0,3.21,1.31a10.82,10.82,0,0,1,4,7.36,17.47,17.47,0,0,1-1.38,8.24A9.69,9.69,0,0,1,93.25,341.78Z" id="elam9nvjh8vs4" class="animable" style="transform-origin: 92.7099px 331.774px;"></path></g></g><g id="elpopibh6hapr"><g style="opacity: 0.3; transform-origin: 102.063px 330.499px;" class="animable"><path d="M108.46,329.16c0,.27-3.18-.86-6.85.23s-5.7,3.71-5.9,3.51.27-.81,1.2-1.76a10.47,10.47,0,0,1,9.59-2.82C107.8,328.62,108.5,329.05,108.46,329.16Z" id="elu3txp8oqcyp" class="animable" style="transform-origin: 102.063px 330.499px;"></path></g></g><g id="el0vginx21bd2d"><g style="opacity: 0.3; transform-origin: 98.309px 325.28px;" class="animable"><path d="M103.14,328.56c-.15,0-.09-.83-.51-2a5.3,5.3,0,0,0-7.66-3c-1.09.56-1.59,1.21-1.71,1.12s.24-.88,1.38-1.68a5.56,5.56,0,0,1,8.61,3.36C103.56,327.75,103.23,328.59,103.14,328.56Z" id="elphj222sy6w" class="animable" style="transform-origin: 98.309px 325.28px;"></path></g></g><g id="elgskav0r4b7"><g style="opacity: 0.3; transform-origin: 98.7864px 326.309px;" class="animable"><path d="M99.38,329.8c-.26-.05-.07-1.67-.54-3.55s-1.34-3.25-1.13-3.42,1.52,1.07,2,3.2S99.61,329.88,99.38,329.8Z" id="el7099x7gfxr6" class="animable" style="transform-origin: 98.7864px 326.309px;"></path></g></g><g id="elp3wf1pymuin"><g style="opacity: 0.3; transform-origin: 97.2489px 326.873px;" class="animable"><path d="M99.27,326.11c0,.27-1,.32-2,.84s-1.79,1.21-2,1,.33-1.12,1.57-1.82S99.33,325.89,99.27,326.11Z" id="eliad1jq3hxd" class="animable" style="transform-origin: 97.2489px 326.873px;"></path></g></g><path d="M66.83,314.63a8.91,8.91,0,0,1,.46,2c.24,1.46.55,3.26.9,5.37.73,4.54,1.67,10.82,2.64,17.76s1.82,13.23,2.38,17.79c.24,2.13.45,3.94.61,5.41a8.63,8.63,0,0,1,.11,2,8,8,0,0,1-.46-1.95q-.37-2.19-.9-5.37c-.73-4.54-1.67-10.82-2.65-17.77s-1.81-13.24-2.37-17.8c-.24-2.13-.45-3.94-.62-5.41A8.8,8.8,0,0,1,66.83,314.63Z" style="fill: rgb(38, 50, 56); transform-origin: 70.3784px 339.795px;" id="el2woj8shshkr" class="animable"></path><g id="elqp3eajkqria"><circle cx="65.5" cy="305.42" r="11.79" style="fill: rgb(255, 114, 94); transform-origin: 65.5px 305.42px; transform: rotate(-23.15deg);" class="animable"></circle></g><g id="elmwxfmpgehta"><g style="opacity: 0.3; transform-origin: 60.9401px 309.022px;" class="animable"><path d="M67.3,317.12a19.9,19.9,0,0,1-.6-3.37A19.68,19.68,0,0,0,64,306.23a11,11,0,0,0-6.28-4.56,18.41,18.41,0,0,0-3.33-.3c0-.07,1.27-.7,3.46-.33a10.81,10.81,0,0,1,6.91,4.68,17.37,17.37,0,0,1,2.6,7.95A9.45,9.45,0,0,1,67.3,317.12Z" id="el55nrtxnsruo" class="animable" style="transform-origin: 60.9401px 309.022px;"></path></g></g><g id="el4optckea2v"><g style="opacity: 0.3; transform-origin: 70.0662px 303.447px;" class="animable"><path d="M74.93,298.87c.07.27-3.22.71-6,3.39s-3.33,5.93-3.59,5.85-.14-.85.24-2.12a10.57,10.57,0,0,1,2.71-4.39A10.42,10.42,0,0,1,72.8,299C74.09,298.71,74.91,298.76,74.93,298.87Z" id="el9bfak0lqoy4" class="animable" style="transform-origin: 70.0662px 303.447px;"></path></g></g><g id="elvgwvoirer8l"><g style="opacity: 0.3; transform-origin: 64.6238px 299.426px;" class="animable"><path d="M69.93,300.81c-.14.06-.46-.69-1.37-1.52a5.3,5.3,0,0,0-8.17.91c-.7,1-.85,1.81-1,1.78s-.19-.89.45-2.12a5.56,5.56,0,0,1,9.19-1C69.93,299.9,70,300.79,69.93,300.81Z" id="elu0eh4t25ra" class="animable" style="transform-origin: 64.6238px 299.426px;"></path></g></g><g id="elium222buenf"><g style="opacity: 0.3; transform-origin: 64.8575px 300.932px;" class="animable"><path d="M67.18,303.66c-.26.07-.84-1.45-2.13-2.9s-2.69-2.26-2.59-2.5,1.85.24,3.28,1.9S67.42,303.62,67.18,303.66Z" id="elv2dzw53vsi" class="animable" style="transform-origin: 64.8575px 300.932px;"></path></g></g><g id="el50hhps1hgxv"><g style="opacity: 0.3; transform-origin: 63.9525px 302.139px;" class="animable"><path d="M65.37,300.43c.11.26-.76.77-1.38,1.68s-1,1.9-1.3,1.81-.23-1.15.55-2.34S65.32,300.22,65.37,300.43Z" id="elf06bi986mtr" class="animable" style="transform-origin: 63.9525px 302.139px;"></path></g></g><polygon points="57.81 423.35 49.47 362.83 103.88 362.83 96.49 423.47 57.81 423.35" style="fill: rgb(69, 90, 100); transform-origin: 76.675px 393.15px;" id="el4e1vao0tocg" class="animable"></polygon><path d="M100.6,389.71c0,.14-10.68.26-23.86.26s-23.87-.12-23.87-.26,10.68-.26,23.87-.26S100.6,389.56,100.6,389.71Z" style="fill: rgb(255, 114, 94); transform-origin: 76.735px 389.71px;" id="elj73je8tb5" class="animable"></path><path d="M76.37,389.44a6.19,6.19,0,0,1-1.14-.67l-3-2-2.06-1.4a12.43,12.43,0,0,1-2.23-1.85,5.53,5.53,0,0,1-1.46-2.9,3.42,3.42,0,0,1,1.25-3.26,2.64,2.64,0,0,1,1.77-.56,2.91,2.91,0,0,1,1.66.68,8.84,8.84,0,0,1,2,2.56,29.57,29.57,0,0,1,2.38,4.81,13.39,13.39,0,0,1,.84,3.53,6.82,6.82,0,0,1,0,1c0,.23,0,.34,0,.34A17.49,17.49,0,0,0,75.16,385a33.06,33.06,0,0,0-2.45-4.7,8.51,8.51,0,0,0-1.87-2.4,2.19,2.19,0,0,0-2.8-.1A2.91,2.91,0,0,0,67,380.57a5.06,5.06,0,0,0,1.32,2.65A12.73,12.73,0,0,0,70.41,385l2,1.44,2.91,2.12A6.48,6.48,0,0,1,76.37,389.44Z" style="fill: rgb(255, 114, 94); transform-origin: 71.4147px 383.258px;" id="elf6jcvxbgsfl" class="animable"></path><path d="M76.05,390.41a5,5,0,0,1,.25-1.23c.19-.79.5-1.92,1-3.29a21.89,21.89,0,0,1,2.13-4.64,14.76,14.76,0,0,1,1.87-2.41,4.3,4.3,0,0,1,1.35-1,2.33,2.33,0,0,1,1.78-.06,1.72,1.72,0,0,1,1.08,1.46,3.82,3.82,0,0,1-.28,1.67,14.7,14.7,0,0,1-1.36,2.72,15,15,0,0,1-3.46,3.76,13.81,13.81,0,0,1-3,1.73,6.8,6.8,0,0,1-.88.32c-.21.07-.32.09-.32.07a21.83,21.83,0,0,0,4-2.41,15.13,15.13,0,0,0,3.28-3.73,14.07,14.07,0,0,0,1.29-2.64,3.31,3.31,0,0,0,.25-1.43,1.17,1.17,0,0,0-.76-1,2.47,2.47,0,0,0-2.58.92,14.81,14.81,0,0,0-1.82,2.3A24.66,24.66,0,0,0,77.6,386c-.5,1.35-.85,2.46-1.11,3.22A6.14,6.14,0,0,1,76.05,390.41Z" style="fill: rgb(255, 114, 94); transform-origin: 80.7831px 384.021px;" id="elkeyee7l09q" class="animable"></path><path d="M78.8,412.64a3.5,3.5,0,0,1-.39-.84c-.21-.54-.5-1.35-.81-2.36a25.8,25.8,0,0,1-1.26-8.14c0-1.62.18-3.14.26-4.52a24.85,24.85,0,0,0,0-3.66,22.09,22.09,0,0,0-.63-3.31,2.87,2.87,0,0,1,.41.83,10.59,10.59,0,0,1,.59,2.44,22.05,22.05,0,0,1,.1,3.72c0,1.39-.19,2.92-.22,4.51a29.46,29.46,0,0,0,1.09,8A33.26,33.26,0,0,1,78.8,412.64Z" style="fill: rgb(255, 114, 94); transform-origin: 77.385px 401.225px;" id="elugtwp1i88yf" class="animable"></path><path d="M85.33,401.34s-.16.2-.57.39a3.26,3.26,0,0,1-1.87.21,4.34,4.34,0,0,1-2.47-1.33,7.43,7.43,0,0,1-1.65-3,25.51,25.51,0,0,1-.67-3.28,13.57,13.57,0,0,0-1.54-4.9,4.64,4.64,0,0,1,1.32,2.16,15.81,15.81,0,0,1,.69,2.65c.2,1,.37,2.12.7,3.22a7.41,7.41,0,0,0,1.5,2.81,4.08,4.08,0,0,0,2.18,1.3A4.27,4.27,0,0,0,85.33,401.34Z" style="fill: rgb(255, 114, 94); transform-origin: 80.945px 395.712px;" id="elpjzh5z269j" class="animable"></path></g><defs>     <filter id="active" height="200%">         <feMorphology in="SourceAlpha" result="DILATED" operator="dilate" radius="2"></feMorphology>                <feFlood flood-color="#32DFEC" flood-opacity="1" result="PINK"></feFlood>        <feComposite in="PINK" in2="DILATED" operator="in" result="OUTLINE"></feComposite>        <feMerge>            <feMergeNode in="OUTLINE"></feMergeNode>            <feMergeNode in="SourceGraphic"></feMergeNode>        </feMerge>    </filter>    <filter id="hover" height="200%">        <feMorphology in="SourceAlpha" result="DILATED" operator="dilate" radius="2"></feMorphology>                <feFlood flood-color="#ff0000" flood-opacity="0.5" result="PINK"></feFlood>        <feComposite in="PINK" in2="DILATED" operator="in" result="OUTLINE"></feComposite>        <feMerge>            <feMergeNode in="OUTLINE"></feMergeNode>            <feMergeNode in="SourceGraphic"></feMergeNode>        </feMerge>            <feColorMatrix type="matrix" values="0   0   0   0   0                0   1   0   0   0                0   0   0   0   0                0   0   0   1   0 "></feColorMatrix>    </filter></defs></svg>